<?xml version="1.0" encoding="utf-8"?>
<!-- Generator: Adobe Illustrator 22.1.0, SVG Export Plug-In . SVG Version: 6.00 Build 0)  -->
<svg version="1.1" id="Layer_1" xmlns="http://www.w3.org/2000/svg" xmlns:xlink="http://www.w3.org/1999/xlink" x="0px" y="0px"
	 viewBox="0 0 90 90.1" style="enable-background:new 0 0 90 90.1;" xml:space="preserve">
<style type="text/css">
	.st0{fill:#231F20;}
</style>
<g>
	<path class="st0" d="M84.1,0H29.4c-3.2,0-5.9,2.6-5.9,5.9v17.8H6c-3.3,0-6,2.7-6,6v54.4c0,3.3,2.7,6,6,6h54.4c3.3,0,6-2.7,6-6V66.4
		h17.7c3.2,0,5.9-2.6,5.9-5.9V5.9C90,2.6,87.4,0,84.1,0z M79.2,5.9L61.4,23.7c-0.3,0-0.6-0.1-0.9-0.1h-9.6L68.6,5.9
		C68.6,5.9,79.2,5.9,79.2,5.9z M29.5,5.9h10.3L29.5,16.2V5.9z M48.9,5.9h10.6L41.8,23.6H31.1L48.9,5.9z M9.3,84.1H6V64.3
		C9.7,68.8,13.3,73.7,9.3,84.1z M20.4,84.1h-6.1c4-12.2-1.2-18.5-5-23.3C7.9,59,6.6,57.5,5.9,56V29.6h12.8c-0.4,4.1-1.5,6.7-2.6,9.1
		c-1.2,2.7-2.4,5.5-2.4,9.7c0,5.5,3.2,9.2,5.9,12.4c2,2.3,3.8,4.5,4.4,7C25.1,72.2,22.3,79.9,20.4,84.1z M34.7,84.1h-9.2
		c1.9-4.6,4.4-12.1,3.2-17.3c-0.8-3.7-3.2-6.5-5.4-9.1c-2.6-3-4.8-5.6-4.8-9.3c0-3.3,0.9-5.3,2-7.8c1.2-2.8,2.6-5.9,3-11.1h8.3
		c0.6,7.6,3.4,12,5.5,15.2c1.3,2,2.3,3.5,2.3,5c0,1.8-0.6,3.6-1.4,6C36.7,60,34.7,65.9,34.7,76C34.7,79.6,34.7,82.3,34.7,84.1z
		 M60.6,84.1h-4.5l0.3-0.1c-2.7-7.1-3-9.2-3-20.1c0-2.4,0.6-4,1.9-5.1c1.4-1.2,3.5-1.5,5.2-1.5L60.6,84.1L60.6,84.1z M60.6,52.7
		c-2.4,0-5.7,0.5-8.2,2.5c-2.4,2-3.7,4.9-3.7,8.7c0,10.6,0.3,13.6,2.7,20.2h-12c0-1.5,0-4,0-8.2c0-9.3,1.8-14.5,3.2-18.7
		c0.9-2.7,1.7-5,1.7-7.5c0-2.9-1.5-5.2-3-7.6c-1.9-2.9-4.2-6.5-4.7-12.7h10.1c0.9,4.6,3.9,13.5,13.8,17.9L60.6,52.7L60.6,52.7z
		 M60.6,42.1c-5.9-3.4-8.2-9.1-9-12.6h9V42.1z M84.1,60.5h-11l11-11V60.5z M84.1,40.4L66.5,58V47.4l17.6-17.6V40.4z M84.1,20.7
		L66.5,38.3v-8.7c0-0.6-0.1-1.1-0.2-1.7L84.2,10C84.1,10.1,84.1,20.7,84.1,20.7z"/>
	<path class="st0" d="M28.6,43.4c-0.2,0-0.4,0-0.6,0c-2.5,0.4-4.2,3-3.8,6.1c0.4,2.8,2.4,4.8,4.7,4.8c0.2,0,0.4,0,0.6,0
		c2.5-0.4,4.2-3,3.8-6.1C33,45.5,31,43.4,28.6,43.4z"/>
</g>
</svg>
