<?xml version="1.0" encoding="utf-8"?>
<!-- Generator: Adobe Illustrator 22.1.0, SVG Export Plug-In . SVG Version: 6.00 Build 0)  -->
<svg version="1.1" id="Layer_1" xmlns="http://www.w3.org/2000/svg" xmlns:xlink="http://www.w3.org/1999/xlink" x="0px" y="0px"
	 viewBox="0 0 40 40" style="enable-background:new 0 0 40 40;" xml:space="preserve">
<style type="text/css">
	.st0{fill:#231F20;}
</style>
<title>Arrow, basic, box, browser, browsing, cancel, direction, exit, export, forward, go</title>
<path class="st0" d="M38,26c-1.1,0-2,0.9-2,2v6c0,1.1-0.9,2-2,2H6c-1.1,0-2-0.9-2-2V6c0-1.1,0.9-2,2-2h6c1.1,0,2-0.9,2-2s-0.9-2-2-2H6
	C2.7,0,0,2.7,0,6v28c0,3.3,2.7,6,6,6h28c3.3,0,6-2.7,6-6v-6C40,26.9,39.1,26,38,26z"/>
<path class="st0" d="M40,1.6c0-0.1,0-0.1,0-0.2c0-0.1,0-0.1-0.1-0.2c0-0.1-0.1-0.1-0.1-0.2c0,0,0-0.1-0.1-0.1c-0.1-0.2-0.3-0.4-0.5-0.6L39,0.3
	l-0.2-0.1l-0.2-0.1h-0.2C38.3,0,38.1,0,38,0H24c-1.1,0-2,0.9-2,2s0.9,2,2,2h9.2L14.6,22.6c-0.8,0.8-0.8,2,0,2.8c0.8,0.8,2,0.8,2.8,0
	L36,6.8V16c0,1.1,0.9,2,2,2s2-0.9,2-2V2C40,1.9,40,1.7,40,1.6z"/>
</svg>
