<?xml version="1.0" encoding="utf-8"?>
<!-- Generator: Adobe Illustrator 22.1.0, SVG Export Plug-In . SVG Version: 6.00 Build 0)  -->
<svg version="1.1" id="Layer_1" xmlns="http://www.w3.org/2000/svg" xmlns:xlink="http://www.w3.org/1999/xlink" x="0px" y="0px"
	 viewBox="0 0 63.6 83.2" style="enable-background:new 0 0 63.6 83.2;" xml:space="preserve">
<style type="text/css">
	.st0{fill:#231F20;}
</style>
<polygon class="st0" points="44,29.3 22.8,50.5 20.8,52.5 24.4,56.1 51.2,29.3 52.7,27.8 56.2,24.3 52.6,20.7 50.6,22.7 45.5,27.8 
	"/>
<path class="st0" d="M57.4,37.3h1.5c0,0.9,0,1.8-0.1,2.7h1.1v-5.3h-3.4V40h0.8C57.3,39.1,57.4,38.2,57.4,37.3z"/>
<polygon class="st0" points="54.9,46.2 54.9,41.5 54.9,33.2 54.9,29.3 53.3,29.3 45.6,37 "/>
<path class="st0" d="M56.4,49.8L56,49.4l-1.1-1.1l0,0L44.6,38l-6.5,6.5l11.4,11.4l1.1,1.1l4.4,4.4l0.7,0.7c0.2,0.2,0.5,0.5,0.8,0.6
	c1.8,1.2,4.2,1,5.8-0.5c0.9-0.9,1.3-2,1.3-3.3s-0.5-2.4-1.4-3.3L56.4,49.8z"/>
<path class="st0" d="M49.4,57.9c-4.8,4.1-11,6.7-17.8,6.7c-9.8,0-18.5-5.3-23.3-13.1v31.7h46.6V63.3c-0.1-0.1-0.2-0.2-0.4-0.3
	L49.4,57.9z"/>
<path class="st0" d="M18.6,52.5l3.1-3.1L8.3,36v5.5v6.8c4.1,8.7,13,14.8,23.3,14.8c6.4,0,12.3-2.4,16.8-6.2L37.1,45.5L24.4,58.2
	L18.6,52.5z"/>
<path class="st0" d="M3.4,40h1.1c-0.1-0.9-0.1-1.8-0.1-2.7h1.5c0,0.9,0,1.8,0.1,2.7h0.8v-5.3H3.4V40z"/>
<polygon class="st0" points="22.8,48.3 41.9,29.3 43.4,27.8 48.4,22.7 25.7,0 21.3,4.4 30.6,13.7 30.1,14.3 29.6,14.8 20.2,5.4 
	16,9.6 25.4,19 24.9,19.5 24.3,20.1 14.9,10.7 10.8,14.9 20.1,24.2 19.6,24.8 19.1,25.3 9.7,15.9 5.5,20.1 13.2,27.8 14.7,29.3 
	14.9,29.5 14.4,30 13.8,30.5 12.6,29.3 11.1,27.8 4.5,21.2 0,25.6 6.8,32.3 7.6,33.2 8.3,33.8 "/>
</svg>
