<?xml version="1.0" encoding="utf-8"?>
<!-- Generator: Adobe Illustrator 22.1.0, SVG Export Plug-In . SVG Version: 6.00 Build 0)  -->
<svg version="1.1" id="Layer_1" xmlns="http://www.w3.org/2000/svg" xmlns:xlink="http://www.w3.org/1999/xlink" x="0px" y="0px"
	 viewBox="0 0 43.3 79.6" style="enable-background:new 0 0 43.3 79.6;" xml:space="preserve">
<style type="text/css">
	.st0{fill:#231F20;}
</style>
<polygon class="st0" points="31.9,55.4 9.6,55.4 10.1,48.7 31.5,48.7 "/>
<polygon class="st0" points="31.4,46.6 10.3,46.6 10.8,39.9 31,39.9 "/>
<path class="st0" d="M26.9,79.6H14.1c-3.3,0-5.9-2.6-6-5.9l1.3-16.3H32l0.9,16.2C32.9,76.9,30.2,79.5,26.9,79.6L26.9,79.6z"/>
<path class="st0" d="M43.3,5.4c0,3.4-2.8,6.2-6.2,6.2h-6.5c-0.6,0-1,0.5-1,1c0,0,0,0,0,0.1L31,37.8H11l2-25.1c0-0.3-0.1-0.6-0.3-0.8
	c-0.2-0.2-0.5-0.3-0.8-0.3H6.2C2.8,11.6,0,8.8,0,5.4V0h43.3V5.4L43.3,5.4z"/>
</svg>
