<?xml version="1.0" encoding="utf-8"?>
<!-- Generator: Adobe Illustrator 22.1.0, SVG Export Plug-In . SVG Version: 6.00 Build 0)  -->
<svg version="1.1" id="Layer_1" xmlns="http://www.w3.org/2000/svg" xmlns:xlink="http://www.w3.org/1999/xlink" x="0px" y="0px"
	 viewBox="0 0 56 56" style="enable-background:new 0 0 56 56;" xml:space="preserve">
<style type="text/css">
	.st0{fill:#231F20;}
</style>
<title>3D GUI - Solid - 041 - Materials</title>
<desc>Created with Sketch.</desc>
<g>
	<g>
		<path class="st0" d="M29,1.9v6c1.2,0,2.4-0.1,3.5-0.3C31.5,5.6,30.3,3.7,29,1.9L29,1.9z"/>
		<path class="st0" d="M36,15.8c-0.7-2.2-1.5-4.3-2.5-6.4c-1.5,0.2-3,0.4-4.5,0.4v12c2.8-0.1,5.6-0.4,8.4-0.9
			C37,19.2,36.5,17.5,36,15.8z"/>
		<path class="st0" d="M37.2,6.5C35.9,5.2,34.5,4.1,33,3c-0.5-0.3-0.9-0.6-1.4-0.9c1.1,1.6,2.1,3.4,3,5.1C35.5,7,36.3,6.8,37.2,6.5
			L37.2,6.5z"/>
		<path class="st0" d="M39,35.4c0-4.2-0.4-8.4-1.2-12.5c-2.9,0.6-5.8,0.9-8.8,0.9v14c3.3-0.1,6.7-0.4,10-0.9
			C39,36.4,39,35.9,39,35.4z"/>
		<path class="st0" d="M47.4,17.8c1.8-0.8,3.6-1.9,5.3-3c-2.1-3.9-5.1-7.3-8.8-9.8c-0.9,0.9-2,1.7-3.2,2.3
			C43.4,10.4,45.7,13.9,47.4,17.8L47.4,17.8z"/>
		<path class="st0" d="M10.7,17.8c0.9,0.3,1.8,0.1,2.5-0.4c2.3-1.3,4.3-4.5,4.3-6.9c0.1-0.7-0.2-1.3-0.7-1.8
			c-0.2-0.1-0.5-0.2-0.7-0.2c-0.6,0-1.3,0.2-1.8,0.6c-2.3,1.5-4.3,4.6-4.3,7C9.9,16.7,10.2,17.4,10.7,17.8z"/>
		<path class="st0" d="M39.2,5.7c1.1-0.5,2.1-1.1,2.9-1.9C39.2,2.1,36,1,32.7,0.4c0.5,0.3,1,0.6,1.4,1C35.9,2.7,37.7,4.1,39.2,5.7
			L39.2,5.7z"/>
		<path class="st0" d="M35.5,9c0.9,2,1.7,4,2.4,6.1c0.6,1.8,1.1,3.6,1.5,5.4c2.1-0.5,4.2-1.1,6.2-2c-1.7-3.9-4-7.4-6.8-10.5
			C37.7,8.5,36.6,8.8,35.5,9L35.5,9z"/>
		<path class="st0" d="M40.9,39c-0.1,1.3-0.2,2.7-0.3,4.1c-0.2,2-0.6,4.1-1,6.1c2.4-0.3,4.8-0.7,7.2-1.3c0.8-2.3,1.3-4.6,1.7-6.9
			c0.2-1.5,0.4-2.9,0.4-4.4c-2.6,0.8-5.3,1.5-8,2C40.9,38.8,40.9,38.9,40.9,39z"/>
		<path class="st0" d="M38.9,52.2c-0.2,0.6-0.3,1.2-0.5,1.8c2.3-0.9,4.4-2.1,6.4-3.6c-1.9,0.4-3.8,0.6-5.7,0.9
			C39,51.6,38.9,51.9,38.9,52.2z"/>
		<path class="st0" d="M39.8,22.5C40.6,26.7,41,31,41,35.4c0,0.4,0,0.8,0,1.2c2.7-0.5,5.3-1.2,7.9-2.1c0-4.8-0.9-9.6-2.6-14.1
			C44.2,21.3,42,22,39.8,22.5L39.8,22.5z"/>
		<path class="st0" d="M50.9,36.6c-0.1,1.6-0.2,3.2-0.5,4.8c-0.2,1.6-0.6,3.1-1,4.6c2.9-3.4,4.9-7.5,5.9-11.8
			c-1.4,0.7-2.9,1.3-4.4,1.8C50.9,36.2,50.9,36.4,50.9,36.6z"/>
		<path class="st0" d="M53.5,16.5c-1.7,1.2-3.5,2.2-5.4,3.1c1.7,4.5,2.7,9.3,2.8,14.2c1.7-0.6,3.3-1.3,4.8-2.1
			C56.5,26.6,55.7,21.3,53.5,16.5L53.5,16.5z"/>
		<path class="st0" d="M38.9,39c-3.3,0.5-6.6,0.8-9.9,0.9V50h0.1c2.8,0,5.6-0.2,8.4-0.5c0.5-2.2,0.9-4.4,1.1-6.6
			C38.7,41.5,38.8,40.2,38.9,39z"/>
		<path class="st0" d="M0,28c0,15.1,11.9,27.4,27,28V0C11.9,0.6,0,12.9,0,28z M13.3,7.5c1.3-0.9,3.1-1.1,4.5-0.4
			c1.2,0.8,1.8,2.1,1.7,3.5c0,3.1-2.3,6.9-5.3,8.6c-0.8,0.5-1.8,0.8-2.8,0.8c-0.6,0-1.2-0.1-1.7-0.4c-1.2-0.8-1.8-2.1-1.7-3.5
			C8,13,10.3,9.2,13.3,7.5z"/>
		<path class="st0" d="M29,52v4c2.4-0.1,4.7-0.5,7-1.1c0.3-1,0.6-2,0.9-3.1c0-0.1,0-0.2,0.1-0.2c-2.6,0.3-5.2,0.4-7.8,0.5
			C29.1,52,29,52,29,52z"/>
	</g>
</g>
</svg>
