{
  "asset": {
    "version": "2.0",
    "generator": "babylon.js glTF exporter for maya 2018 v1.2.26"
  },
  "scene": 0,
  "scenes": [
    {
      "nodes": [
        0,
        1,
        2,
        3,
        4,
        5,
        6,
        7
      ],
      "extensions": {}
    }
  ],
  "nodes": [
    {
      "mesh": 0,
      "translation": [
        0,
        0,
        0
      ],
      "rotation": [
        0,
        0,
        0,
        1
      ],
      "scale": [
        1,
        1,
        1
      ],
      "name": "Bullet"
    },
    {
      "mesh": 1,
      "translation": [
        0,
        0,
        0
      ],
      "rotation": [
        0,
        0,
        0,
        1
      ],
      "scale": [
        1,
        1,
        1
      ],
      "name": "Drum_Magazine"
    },
    {
      "mesh": 2,
      "translation": [
        0,
        0,
        0
      ],
      "rotation": [
        0,
        0,
        0,
        1
      ],
      "scale": [
        1,
        1,
        1
      ],
      "name": "Stick_Magazine"
    },
    {
      "mesh": 3,
      "translation": [
        0,
        0,
        0
      ],
      "rotation": [
        0,
        0,
        0,
        1
      ],
      "scale": [
        1,
        1,
        1
      ],
      "name": "trigger_bolt"
    },
    {
      "mesh": 4,
      "translation": [
        0,
        0,
        0
      ],
      "rotation": [
        0,
        0,
        0,
        1
      ],
      "scale": [
        1,
        1,
        1
      ],
      "name": "barrel"
    },
    {
      "mesh": 5,
      "translation": [
        0,
        0,
        0
      ],
      "rotation": [
        0,
        0,
        0,
        1
      ],
      "scale": [
        1,
        1,
        1
      ],
      "name": "metal"
    },
    {
      "mesh": 6,
      "translation": [
        0,
        0,
        0
      ],
      "rotation": [
        0,
        0,
        0,
        1
      ],
      "scale": [
        1,
        1,
        1
      ],
      "name": "stock"
    },
    {
      "translation": [
        0,
        0,
        0
      ],
      "rotation": [
        0,
        0,
        0,
        1
      ],
      "scale": [
        1,
        1,
        1
      ],
      "name": "Default light"
    }
  ],
  "meshes": [
    {
      "primitives": [
        {
          "attributes": {
            "POSITION": 1,
            "NORMAL": 2,
            "TANGENT": 3,
            "TEXCOORD_0": 4
          },
          "indices": 0,
          "mode": 4,
          "material": 0
        }
      ],
      "name": "Bullet"
    },
    {
      "primitives": [
        {
          "attributes": {
            "POSITION": 6,
            "NORMAL": 7,
            "TANGENT": 8,
            "TEXCOORD_0": 9
          },
          "indices": 5,
          "mode": 4,
          "material": 0
        }
      ],
      "name": "Drum_Magazine"
    },
    {
      "primitives": [
        {
          "attributes": {
            "POSITION": 11,
            "NORMAL": 12,
            "TANGENT": 13,
            "TEXCOORD_0": 14
          },
          "indices": 10,
          "mode": 4,
          "material": 0
        }
      ],
      "name": "Stick_Magazine"
    },
    {
      "primitives": [
        {
          "attributes": {
            "POSITION": 16,
            "NORMAL": 17,
            "TANGENT": 18,
            "TEXCOORD_0": 19
          },
          "indices": 15,
          "mode": 4,
          "material": 1
        }
      ],
      "name": "trigger_bolt"
    },
    {
      "primitives": [
        {
          "attributes": {
            "POSITION": 21,
            "NORMAL": 22,
            "TANGENT": 23,
            "TEXCOORD_0": 24
          },
          "indices": 20,
          "mode": 4,
          "material": 1
        }
      ],
      "name": "barrel"
    },
    {
      "primitives": [
        {
          "attributes": {
            "POSITION": 26,
            "NORMAL": 27,
            "TANGENT": 28,
            "TEXCOORD_0": 29
          },
          "indices": 25,
          "mode": 4,
          "material": 1
        }
      ],
      "name": "metal"
    },
    {
      "primitives": [
        {
          "attributes": {
            "POSITION": 31,
            "NORMAL": 32,
            "TANGENT": 33,
            "TEXCOORD_0": 34
          },
          "indices": 30,
          "mode": 4,
          "material": 1
        }
      ],
      "name": "stock"
    }
  ],
  "accessors": [
    {
      "bufferView": 0,
      "componentType": 5123,
      "count": 894,
      "type": "SCALAR",
      "name": "accessorIndices"
    },
    {
      "bufferView": 1,
      "componentType": 5126,
      "count": 195,
      "max": [
        15.1947327,
        3.90537119,
        0.277838647
      ],
      "min": [
        13.0786724,
        3.34969425,
        -0.277838647
      ],
      "type": "VEC3",
      "name": "accessorPositions"
    },
    {
      "bufferView": 1,
      "byteOffset": 2340,
      "componentType": 5126,
      "count": 195,
      "type": "VEC3",
      "name": "accessorNormals"
    },
    {
      "bufferView": 2,
      "componentType": 5126,
      "count": 195,
      "type": "VEC4",
      "name": "accessorTangents"
    },
    {
      "bufferView": 3,
      "componentType": 5126,
      "count": 195,
      "type": "VEC2",
      "name": "accessorUVs"
    },
    {
      "bufferView": 0,
      "byteOffset": 1788,
      "componentType": 5123,
      "count": 8247,
      "type": "SCALAR",
      "name": "accessorIndices"
    },
    {
      "bufferView": 1,
      "byteOffset": 4680,
      "componentType": 5126,
      "count": 1840,
      "max": [
        15.8091288,
        3.83408952,
        4.396815
      ],
      "min": [
        12.7063293,
        -5.325138,
        -4.396815
      ],
      "type": "VEC3",
      "name": "accessorPositions"
    },
    {
      "bufferView": 1,
      "byteOffset": 26760,
      "componentType": 5126,
      "count": 1840,
      "type": "VEC3",
      "name": "accessorNormals"
    },
    {
      "bufferView": 2,
      "byteOffset": 3120,
      "componentType": 5126,
      "count": 1840,
      "type": "VEC4",
      "name": "accessorTangents"
    },
    {
      "bufferView": 3,
      "byteOffset": 1560,
      "componentType": 5126,
      "count": 1840,
      "type": "VEC2",
      "name": "accessorUVs"
    },
    {
      "bufferView": 0,
      "byteOffset": 18284,
      "componentType": 5123,
      "count": 3894,
      "type": "SCALAR",
      "name": "accessorIndices"
    },
    {
      "bufferView": 1,
      "byteOffset": 48840,
      "componentType": 5126,
      "count": 1156,
      "max": [
        18.7970619,
        3.91959715,
        1.11355019
      ],
      "min": [
        12.6490154,
        -10.0371084,
        -1.11355019
      ],
      "type": "VEC3",
      "name": "accessorPositions"
    },
    {
      "bufferView": 1,
      "byteOffset": 62712,
      "componentType": 5126,
      "count": 1156,
      "type": "VEC3",
      "name": "accessorNormals"
    },
    {
      "bufferView": 2,
      "byteOffset": 32560,
      "componentType": 5126,
      "count": 1156,
      "type": "VEC4",
      "name": "accessorTangents"
    },
    {
      "bufferView": 3,
      "byteOffset": 16280,
      "componentType": 5126,
      "count": 1156,
      "type": "VEC2",
      "name": "accessorUVs"
    },
    {
      "bufferView": 0,
      "byteOffset": 26072,
      "componentType": 5123,
      "count": 11478,
      "type": "SCALAR",
      "name": "accessorIndices"
    },
    {
      "bufferView": 1,
      "byteOffset": 76584,
      "componentType": 5126,
      "count": 3319,
      "max": [
        29.2221489,
        6.01341438,
        1.946888
      ],
      "min": [
        -13.5042791,
        -5.093705,
        -1.35304642
      ],
      "type": "VEC3",
      "name": "accessorPositions"
    },
    {
      "bufferView": 1,
      "byteOffset": 116412,
      "componentType": 5126,
      "count": 3319,
      "type": "VEC3",
      "name": "accessorNormals"
    },
    {
      "bufferView": 2,
      "byteOffset": 51056,
      "componentType": 5126,
      "count": 3319,
      "type": "VEC4",
      "name": "accessorTangents"
    },
    {
      "bufferView": 3,
      "byteOffset": 25528,
      "componentType": 5126,
      "count": 3319,
      "type": "VEC2",
      "name": "accessorUVs"
    },
    {
      "bufferView": 0,
      "byteOffset": 49028,
      "componentType": 5123,
      "count": 2040,
      "type": "SCALAR",
      "name": "accessorIndices"
    },
    {
      "bufferView": 1,
      "byteOffset": 156240,
      "componentType": 5126,
      "count": 696,
      "max": [
        32.43148,
        4.95382071,
        1.937851
      ],
      "min": [
        4.69471836,
        3.266672,
        -0.802946448
      ],
      "type": "VEC3",
      "name": "accessorPositions"
    },
    {
      "bufferView": 1,
      "byteOffset": 164592,
      "componentType": 5126,
      "count": 696,
      "type": "VEC3",
      "name": "accessorNormals"
    },
    {
      "bufferView": 2,
      "byteOffset": 104160,
      "componentType": 5126,
      "count": 696,
      "type": "VEC4",
      "name": "accessorTangents"
    },
    {
      "bufferView": 3,
      "byteOffset": 52080,
      "componentType": 5126,
      "count": 696,
      "type": "VEC2",
      "name": "accessorUVs"
    },
    {
      "bufferView": 0,
      "byteOffset": 53108,
      "componentType": 5123,
      "count": 10950,
      "type": "SCALAR",
      "name": "accessorIndices"
    },
    {
      "bufferView": 1,
      "byteOffset": 172944,
      "componentType": 5126,
      "count": 3414,
      "max": [
        33.5245361,
        6.37170267,
        1.20226312
      ],
      "min": [
        0.5328752,
        1.2231884,
        -1.15606773
      ],
      "type": "VEC3",
      "name": "accessorPositions"
    },
    {
      "bufferView": 1,
      "byteOffset": 213912,
      "componentType": 5126,
      "count": 3414,
      "type": "VEC3",
      "name": "accessorNormals"
    },
    {
      "bufferView": 2,
      "byteOffset": 115296,
      "componentType": 5126,
      "count": 3414,
      "type": "VEC4",
      "name": "accessorTangents"
    },
    {
      "bufferView": 3,
      "byteOffset": 57648,
      "componentType": 5126,
      "count": 3414,
      "type": "VEC2",
      "name": "accessorUVs"
    },
    {
      "bufferView": 0,
      "byteOffset": 75008,
      "componentType": 5123,
      "count": 2427,
      "type": "SCALAR",
      "name": "accessorIndices"
    },
    {
      "bufferView": 1,
      "byteOffset": 254880,
      "componentType": 5126,
      "count": 537,
      "max": [
        11.382144,
        4.194479,
        1.35965919
      ],
      "min": [
        -13.3203945,
        -5.093705,
        -1.3596611
      ],
      "type": "VEC3",
      "name": "accessorPositions"
    },
    {
      "bufferView": 1,
      "byteOffset": 261324,
      "componentType": 5126,
      "count": 537,
      "type": "VEC3",
      "name": "accessorNormals"
    },
    {
      "bufferView": 2,
      "byteOffset": 169920,
      "componentType": 5126,
      "count": 537,
      "type": "VEC4",
      "name": "accessorTangents"
    },
    {
      "bufferView": 3,
      "byteOffset": 84960,
      "componentType": 5126,
      "count": 537,
      "type": "VEC2",
      "name": "accessorUVs"
    }
  ],
  "bufferViews": [
    {
      "buffer": 0,
      "byteLength": 79864,
      "name": "bufferViewScalar"
    },
    {
      "buffer": 0,
      "byteOffset": 79864,
      "byteLength": 267768,
      "byteStride": 12,
      "name": "bufferViewFloatVec3"
    },
    {
      "buffer": 0,
      "byteOffset": 347632,
      "byteLength": 178512,
      "byteStride": 16,
      "name": "bufferViewFloatVec4"
    },
    {
      "buffer": 0,
      "byteOffset": 526144,
      "byteLength": 89256,
      "byteStride": 8,
      "name": "bufferViewFloatVec2"
    }
  ],
  "buffers": [
    {
      "uri": "ppsh.bin",
      "byteLength": 615400
    }
  ],
  "materials": [
    {
      "pbrMetallicRoughness": {
        "baseColorFactor": [
          0.5208334,
          0.5208334,
          0.5208334,
          1
        ],
        "metallicFactor": 0,
        "roughnessFactor": 0.9
      },
      "emissiveFactor": [
        0,
        0,
        0
      ],
      "alphaMode": "OPAQUE",
      "name": "Magazine"
    },
    {
      "pbrMetallicRoughness": {
        "baseColorFactor": [
          1,
          1,
          1,
          1
        ],
        "baseColorTexture": {
          "index": 0,
          "texCoord": 0
        },
        "metallicFactor": 0,
        "roughnessFactor": 0.9
      },
      "emissiveFactor": [
        0,
        0,
        0
      ],
      "alphaMode": "OPAQUE",
      "name": "PPSH"
    }
  ],
  "textures": [
    {
      "sampler": 0,
      "source": 0,
      "name": "PPSH_BaseColor.jpg"
    }
  ],
  "images": [
    {
      "uri": "data:image/png;base64,"
    }
  ],
  "samplers": [
    {
      "magFilter": 9729,
      "minFilter": 9987,
      "wrapS": 10497,
      "wrapT": 10497
    }
  ]
}