{
  "asset": {
    "version": "2.0",
    "generator": "babylon.js glTF exporter for maya 2018 v1.2.26"
  },
  "scene": 0,
  "scenes": [
    {
      "nodes": [
        0,
        2,
        4,
        5,
        6,
        7,
        8,
        9
      ],
      "extensions": {}
    }
  ],
  "nodes": [
    {
      "children": [
        1
      ],
      "translation": [
        0,
        0,
        0
      ],
      "rotation": [
        0,
        0,
        0,
        1
      ],
      "scale": [
        1,
        1,
        1
      ],
      "name": "Frame"
    },
    {
      "mesh": 0,
      "translation": [
        0,
        0,
        0
      ],
      "rotation": [
        0,
        0,
        0,
        1
      ],
      "scale": [
        1,
        1,
        1
      ],
      "name": "body"
    },
    {
      "children": [
        3
      ],
      "translation": [
        0,
        0,
        0
      ],
      "rotation": [
        0,
        0,
        0,
        1
      ],
      "scale": [
        1,
        1,
        1
      ],
      "name": "Bolt"
    },
    {
      "mesh": 1,
      "translation": [
        0,
        0,
        0
      ],
      "rotation": [
        0,
        0,
        0,
        1
      ],
      "scale": [
        1,
        1,
        1
      ],
      "name": "metal_3"
    },
    {
      "mesh": 2,
      "translation": [
        0,
        0,
        0
      ],
      "rotation": [
        0,
        0,
        0,
        1
      ],
      "scale": [
        1,
        1,
        1
      ],
      "name": "Trigger1"
    },
    {
      "mesh": 3,
      "translation": [
        0,
        0,
        0
      ],
      "rotation": [
        0,
        0,
        0,
        1
      ],
      "scale": [
        1,
        1,
        1
      ],
      "name": "metal_2"
    },
    {
      "mesh": 4,
      "translation": [
        0,
        0,
        0
      ],
      "rotation": [
        0,
        0,
        0,
        1
      ],
      "scale": [
        1,
        1,
        1
      ],
      "name": "metal_4"
    },
    {
      "mesh": 5,
      "translation": [
        0,
        0,
        0
      ],
      "rotation": [
        0,
        0,
        0,
        1
      ],
      "scale": [
        1,
        1,
        1
      ],
      "name": "sight"
    },
    {
      "mesh": 6,
      "translation": [
        0,
        0,
        0
      ],
      "rotation": [
        0,
        0,
        0,
        1
      ],
      "scale": [
        1,
        1,
        1
      ],
      "name": "metal_1"
    },
    {
      "translation": [
        0,
        0,
        0
      ],
      "rotation": [
        0,
        0,
        0,
        1
      ],
      "scale": [
        1,
        1,
        1
      ],
      "name": "Default light"
    }
  ],
  "meshes": [
    {
      "primitives": [
        {
          "attributes": {
            "POSITION": 1,
            "NORMAL": 2,
            "TANGENT": 3,
            "TEXCOORD_0": 4
          },
          "indices": 0,
          "mode": 4,
          "material": 0
        }
      ],
      "name": "body"
    },
    {
      "primitives": [
        {
          "attributes": {
            "POSITION": 6,
            "NORMAL": 7,
            "TANGENT": 8,
            "TEXCOORD_0": 9
          },
          "indices": 5,
          "mode": 4,
          "material": 0
        }
      ],
      "name": "metal_3"
    },
    {
      "primitives": [
        {
          "attributes": {
            "POSITION": 11,
            "NORMAL": 12,
            "TANGENT": 13,
            "TEXCOORD_0": 14
          },
          "indices": 10,
          "mode": 4,
          "material": 0
        }
      ],
      "name": "Trigger1"
    },
    {
      "primitives": [
        {
          "attributes": {
            "POSITION": 16,
            "NORMAL": 17,
            "TANGENT": 18,
            "TEXCOORD_0": 19
          },
          "indices": 15,
          "mode": 4,
          "material": 0
        }
      ],
      "name": "metal_2"
    },
    {
      "primitives": [
        {
          "attributes": {
            "POSITION": 21,
            "NORMAL": 22,
            "TANGENT": 23,
            "TEXCOORD_0": 24
          },
          "indices": 20,
          "mode": 4,
          "material": 0
        }
      ],
      "name": "metal_4"
    },
    {
      "primitives": [
        {
          "attributes": {
            "POSITION": 26,
            "NORMAL": 27,
            "TANGENT": 28,
            "TEXCOORD_0": 29
          },
          "indices": 25,
          "mode": 4,
          "material": 0
        }
      ],
      "name": "sight"
    },
    {
      "primitives": [
        {
          "attributes": {
            "POSITION": 31,
            "NORMAL": 32,
            "TANGENT": 33,
            "TEXCOORD_0": 34
          },
          "indices": 30,
          "mode": 4,
          "material": 0
        }
      ],
      "name": "metal_1"
    }
  ],
  "accessors": [
    {
      "bufferView": 0,
      "componentType": 5123,
      "count": 8592,
      "type": "SCALAR",
      "name": "accessorIndices"
    },
    {
      "bufferView": 1,
      "componentType": 5126,
      "count": 1899,
      "max": [
        2.433219,
        1.51325321,
        52.3025436
      ],
      "min": [
        -2.4557333,
        -16.3486919,
        -43.6858025
      ],
      "type": "VEC3",
      "name": "accessorPositions"
    },
    {
      "bufferView": 1,
      "byteOffset": 22788,
      "componentType": 5126,
      "count": 1899,
      "type": "VEC3",
      "name": "accessorNormals"
    },
    {
      "bufferView": 2,
      "componentType": 5126,
      "count": 1899,
      "type": "VEC4",
      "name": "accessorTangents"
    },
    {
      "bufferView": 3,
      "componentType": 5126,
      "count": 1899,
      "type": "VEC2",
      "name": "accessorUVs"
    },
    {
      "bufferView": 0,
      "byteOffset": 17184,
      "componentType": 5123,
      "count": 4494,
      "type": "SCALAR",
      "name": "accessorIndices"
    },
    {
      "bufferView": 1,
      "byteOffset": 45576,
      "componentType": 5126,
      "count": 1099,
      "max": [
        1.6339283,
        1.80007529,
        7.578595
      ],
      "min": [
        -5.152034,
        -4.134443,
        -10.8993034
      ],
      "type": "VEC3",
      "name": "accessorPositions"
    },
    {
      "bufferView": 1,
      "byteOffset": 58764,
      "componentType": 5126,
      "count": 1099,
      "type": "VEC3",
      "name": "accessorNormals"
    },
    {
      "bufferView": 2,
      "byteOffset": 30384,
      "componentType": 5126,
      "count": 1099,
      "type": "VEC4",
      "name": "accessorTangents"
    },
    {
      "bufferView": 3,
      "byteOffset": 15192,
      "componentType": 5126,
      "count": 1099,
      "type": "VEC2",
      "name": "accessorUVs"
    },
    {
      "bufferView": 0,
      "byteOffset": 26172,
      "componentType": 5123,
      "count": 1635,
      "type": "SCALAR",
      "name": "accessorIndices"
    },
    {
      "bufferView": 1,
      "byteOffset": 71952,
      "componentType": 5126,
      "count": 411,
      "max": [
        1.32198977,
        -4.358004,
        8.056545
      ],
      "min": [
        -1.32200193,
        -8.755455,
        -14.1845484
      ],
      "type": "VEC3",
      "name": "accessorPositions"
    },
    {
      "bufferView": 1,
      "byteOffset": 76884,
      "componentType": 5126,
      "count": 411,
      "type": "VEC3",
      "name": "accessorNormals"
    },
    {
      "bufferView": 2,
      "byteOffset": 47968,
      "componentType": 5126,
      "count": 411,
      "type": "VEC4",
      "name": "accessorTangents"
    },
    {
      "bufferView": 3,
      "byteOffset": 23984,
      "componentType": 5126,
      "count": 411,
      "type": "VEC2",
      "name": "accessorUVs"
    },
    {
      "bufferView": 0,
      "byteOffset": 29444,
      "componentType": 5123,
      "count": 3000,
      "type": "SCALAR",
      "name": "accessorIndices"
    },
    {
      "bufferView": 1,
      "byteOffset": 81816,
      "componentType": 5126,
      "count": 866,
      "max": [
        2.38711286,
        2.414585,
        22.734333
      ],
      "min": [
        -1.46139908,
        -0.5182941,
        -8.188581
      ],
      "type": "VEC3",
      "name": "accessorPositions"
    },
    {
      "bufferView": 1,
      "byteOffset": 92208,
      "componentType": 5126,
      "count": 866,
      "type": "VEC3",
      "name": "accessorNormals"
    },
    {
      "bufferView": 2,
      "byteOffset": 54544,
      "componentType": 5126,
      "count": 866,
      "type": "VEC4",
      "name": "accessorTangents"
    },
    {
      "bufferView": 3,
      "byteOffset": 27272,
      "componentType": 5126,
      "count": 866,
      "type": "VEC2",
      "name": "accessorUVs"
    },
    {
      "bufferView": 0,
      "byteOffset": 35444,
      "componentType": 5123,
      "count": 5028,
      "type": "SCALAR",
      "name": "accessorIndices"
    },
    {
      "bufferView": 1,
      "byteOffset": 102600,
      "componentType": 5126,
      "count": 1332,
      "max": [
        1.73160052,
        1.63897228,
        67.48519
      ],
      "min": [
        -1.90541267,
        -2.15630913,
        -8.160681
      ],
      "type": "VEC3",
      "name": "accessorPositions"
    },
    {
      "bufferView": 1,
      "byteOffset": 118584,
      "componentType": 5126,
      "count": 1332,
      "type": "VEC3",
      "name": "accessorNormals"
    },
    {
      "bufferView": 2,
      "byteOffset": 68400,
      "componentType": 5126,
      "count": 1332,
      "type": "VEC4",
      "name": "accessorTangents"
    },
    {
      "bufferView": 3,
      "byteOffset": 34200,
      "componentType": 5126,
      "count": 1332,
      "type": "VEC2",
      "name": "accessorUVs"
    },
    {
      "bufferView": 0,
      "byteOffset": 45500,
      "componentType": 5123,
      "count": 1116,
      "type": "SCALAR",
      "name": "accessorIndices"
    },
    {
      "bufferView": 1,
      "byteOffset": 134568,
      "componentType": 5126,
      "count": 299,
      "max": [
        0.9351377,
        3.035699,
        66.4149
      ],
      "min": [
        -0.9351619,
        -0.846286535,
        63.742485
      ],
      "type": "VEC3",
      "name": "accessorPositions"
    },
    {
      "bufferView": 1,
      "byteOffset": 138156,
      "componentType": 5126,
      "count": 299,
      "type": "VEC3",
      "name": "accessorNormals"
    },
    {
      "bufferView": 2,
      "byteOffset": 89712,
      "componentType": 5126,
      "count": 299,
      "type": "VEC4",
      "name": "accessorTangents"
    },
    {
      "bufferView": 3,
      "byteOffset": 44856,
      "componentType": 5126,
      "count": 299,
      "type": "VEC2",
      "name": "accessorUVs"
    },
    {
      "bufferView": 0,
      "byteOffset": 47732,
      "componentType": 5123,
      "count": 5220,
      "type": "SCALAR",
      "name": "accessorIndices"
    },
    {
      "bufferView": 1,
      "byteOffset": 141744,
      "componentType": 5126,
      "count": 1310,
      "max": [
        2.60761213,
        1.78838849,
        58.173008
      ],
      "min": [
        -2.37823582,
        -16.3486919,
        -43.8007
      ],
      "type": "VEC3",
      "name": "accessorPositions"
    },
    {
      "bufferView": 1,
      "byteOffset": 157464,
      "componentType": 5126,
      "count": 1310,
      "type": "VEC3",
      "name": "accessorNormals"
    },
    {
      "bufferView": 2,
      "byteOffset": 94496,
      "componentType": 5126,
      "count": 1310,
      "type": "VEC4",
      "name": "accessorTangents"
    },
    {
      "bufferView": 3,
      "byteOffset": 47248,
      "componentType": 5126,
      "count": 1310,
      "type": "VEC2",
      "name": "accessorUVs"
    }
  ],
  "bufferViews": [
    {
      "buffer": 0,
      "byteLength": 58172,
      "name": "bufferViewScalar"
    },
    {
      "buffer": 0,
      "byteOffset": 58172,
      "byteLength": 173184,
      "byteStride": 12,
      "name": "bufferViewFloatVec3"
    },
    {
      "buffer": 0,
      "byteOffset": 231356,
      "byteLength": 115456,
      "byteStride": 16,
      "name": "bufferViewFloatVec4"
    },
    {
      "buffer": 0,
      "byteOffset": 346812,
      "byteLength": 57728,
      "byteStride": 8,
      "name": "bufferViewFloatVec2"
    }
  ],
  "buffers": [
    {
      "uri": "kar98.bin",
      "byteLength": 404540
    }
  ],
  "materials": [
    {
      "pbrMetallicRoughness": {
        "baseColorFactor": [
          1,
          1,
          1,
          1
        ],
        "metallicFactor": 0.4791667,
        "roughnessFactor": 0.734195054
      },
      "emissiveFactor": [
        0,
        0,
        0
      ],
      "alphaMode": "OPAQUE",
      "name": "blinn1"
    }
  ]
}