{
  "asset": {
    "version": "2.0",
    "generator": "babylon.js glTF exporter for maya 2018 v1.2.26"
  },
  "scene": 0,
  "scenes": [
    {
      "nodes": [
        0,
        3,
        4,
        5,
        6,
        7,
        8
      ],
      "extensions": {}
    }
  ],
  "nodes": [
    {
      "children": [
        1,
        2
      ],
      "translation": [
        0.00169300148,
        1.28655887,
        0.911233664
      ],
      "rotation": [
        -0.707106769,
        0,
        0,
        0.707106769
      ],
      "scale": [
        1,
        1,
        1
      ],
      "name": "_body"
    },
    {
      "mesh": 0,
      "translation": [
        -2.16840434e-19,
        0.99480474,
        -1.23646116
      ],
      "rotation": [
        0,
        0,
        0,
        1
      ],
      "scale": [
        1,
        1,
        1
      ],
      "name": "barrel"
    },
    {
      "mesh": 1,
      "translation": [
        -2.16840434e-19,
        0.99480474,
        -1.23646116
      ],
      "rotation": [
        0,
        0,
        0,
        1
      ],
      "scale": [
        1,
        1,
        1
      ],
      "name": "plastic"
    },
    {
      "mesh": 2,
      "translation": [
        -0.00008756854,
        -0.0207446087,
        -0.107153483
      ],
      "rotation": [
        -0.707106769,
        0,
        0,
        0.707106769
      ],
      "scale": [
        1,
        1,
        1
      ],
      "name": "_mag"
    },
    {
      "mesh": 3,
      "translation": [
        -2.16840434e-19,
        0.120083973,
        0.3845511
      ],
      "rotation": [
        -0.707106769,
        0,
        0,
        0.707106769
      ],
      "scale": [
        1,
        1,
        1
      ],
      "name": "_silencer"
    },
    {
      "mesh": 4,
      "translation": [
        -2.16840434e-19,
        -1.23646116,
        -0.99480474
      ],
      "rotation": [
        0,
        0,
        0,
        1
      ],
      "scale": [
        1,
        1,
        1
      ],
      "name": "trigger"
    },
    {
      "mesh": 5,
      "translation": [
        -2.16840434e-19,
        -1.23646116,
        -0.99480474
      ],
      "rotation": [
        0,
        0,
        0,
        1
      ],
      "scale": [
        1,
        1,
        1
      ],
      "name": "bolt"
    },
    {
      "mesh": 6,
      "translation": [
        0,
        0,
        0
      ],
      "rotation": [
        0,
        0,
        0,
        1
      ],
      "scale": [
        1,
        1,
        1
      ],
      "name": "receiver"
    },
    {
      "translation": [
        0,
        0,
        0
      ],
      "rotation": [
        0,
        0,
        0,
        1
      ],
      "scale": [
        1,
        1,
        1
      ],
      "name": "Default light"
    }
  ],
  "meshes": [
    {
      "primitives": [
        {
          "attributes": {
            "POSITION": 1,
            "NORMAL": 2,
            "TANGENT": 3,
            "TEXCOORD_0": 4,
            "TEXCOORD_1": 5
          },
          "indices": 0,
          "mode": 4,
          "material": 0
        }
      ],
      "name": "barrel"
    },
    {
      "primitives": [
        {
          "attributes": {
            "POSITION": 7,
            "NORMAL": 8,
            "TANGENT": 9,
            "TEXCOORD_0": 10,
            "TEXCOORD_1": 11
          },
          "indices": 6,
          "mode": 4,
          "material": 0
        }
      ],
      "name": "plastic"
    },
    {
      "primitives": [
        {
          "attributes": {
            "POSITION": 13,
            "NORMAL": 14,
            "TANGENT": 15,
            "TEXCOORD_0": 16,
            "TEXCOORD_1": 17
          },
          "indices": 12,
          "mode": 4,
          "material": 0
        }
      ],
      "name": "_mag"
    },
    {
      "primitives": [
        {
          "attributes": {
            "POSITION": 19,
            "NORMAL": 20,
            "TANGENT": 21,
            "TEXCOORD_0": 22,
            "TEXCOORD_1": 23
          },
          "indices": 18,
          "mode": 4,
          "material": 0
        }
      ],
      "name": "_silencer"
    },
    {
      "primitives": [
        {
          "attributes": {
            "POSITION": 25,
            "NORMAL": 26,
            "TANGENT": 27,
            "TEXCOORD_0": 28,
            "TEXCOORD_1": 29
          },
          "indices": 24,
          "mode": 4,
          "material": 0
        }
      ],
      "name": "trigger"
    },
    {
      "primitives": [
        {
          "attributes": {
            "POSITION": 31,
            "NORMAL": 32,
            "TANGENT": 33,
            "TEXCOORD_0": 34,
            "TEXCOORD_1": 35
          },
          "indices": 30,
          "mode": 4,
          "material": 0
        }
      ],
      "name": "bolt"
    },
    {
      "primitives": [
        {
          "attributes": {
            "POSITION": 37,
            "NORMAL": 38,
            "TANGENT": 39,
            "TEXCOORD_0": 40,
            "TEXCOORD_1": 41
          },
          "indices": 36,
          "mode": 4,
          "material": 0
        }
      ],
      "name": "receiver"
    }
  ],
  "accessors": [
    {
      "bufferView": 0,
      "componentType": 5123,
      "count": 3600,
      "type": "SCALAR",
      "name": "accessorIndices"
    },
    {
      "bufferView": 1,
      "componentType": 5126,
      "count": 806,
      "max": [
        0.0204964764,
        0.06577174,
        0.09890394
      ],
      "min": [
        -0.0243297815,
        -0.3334484,
        0.0145340264
      ],
      "type": "VEC3",
      "name": "accessorPositions"
    },
    {
      "bufferView": 1,
      "byteOffset": 9672,
      "componentType": 5126,
      "count": 806,
      "type": "VEC3",
      "name": "accessorNormals"
    },
    {
      "bufferView": 2,
      "componentType": 5126,
      "count": 806,
      "type": "VEC4",
      "name": "accessorTangents"
    },
    {
      "bufferView": 3,
      "componentType": 5126,
      "count": 806,
      "type": "VEC2",
      "name": "accessorUVs"
    },
    {
      "bufferView": 3,
      "byteOffset": 6448,
      "componentType": 5126,
      "count": 806,
      "type": "VEC2",
      "name": "accessorUV2s"
    },
    {
      "bufferView": 0,
      "byteOffset": 7200,
      "componentType": 5123,
      "count": 687,
      "type": "SCALAR",
      "name": "accessorIndices"
    },
    {
      "bufferView": 1,
      "byteOffset": 19344,
      "componentType": 5126,
      "count": 181,
      "max": [
        0.0257620551,
        0.09642628,
        0.0259363838
      ],
      "min": [
        -0.02959536,
        -0.04084827,
        -0.184791863
      ],
      "type": "VEC3",
      "name": "accessorPositions"
    },
    {
      "bufferView": 1,
      "byteOffset": 21516,
      "componentType": 5126,
      "count": 181,
      "type": "VEC3",
      "name": "accessorNormals"
    },
    {
      "bufferView": 2,
      "byteOffset": 12896,
      "componentType": 5126,
      "count": 181,
      "type": "VEC4",
      "name": "accessorTangents"
    },
    {
      "bufferView": 3,
      "byteOffset": 12896,
      "componentType": 5126,
      "count": 181,
      "type": "VEC2",
      "name": "accessorUVs"
    },
    {
      "bufferView": 3,
      "byteOffset": 14344,
      "componentType": 5126,
      "count": 181,
      "type": "VEC2",
      "name": "accessorUV2s"
    },
    {
      "bufferView": 0,
      "byteOffset": 8576,
      "componentType": 5123,
      "count": 480,
      "type": "SCALAR",
      "name": "accessorIndices"
    },
    {
      "bufferView": 1,
      "byteOffset": 23688,
      "componentType": 5126,
      "count": 146,
      "max": [
        0.0135910381,
        0.0615644753,
        0.122446321
      ],
      "min": [
        -0.0135910315,
        -0.0615644753,
        -0.122446246
      ],
      "type": "VEC3",
      "name": "accessorPositions"
    },
    {
      "bufferView": 1,
      "byteOffset": 25440,
      "componentType": 5126,
      "count": 146,
      "type": "VEC3",
      "name": "accessorNormals"
    },
    {
      "bufferView": 2,
      "byteOffset": 15792,
      "componentType": 5126,
      "count": 146,
      "type": "VEC4",
      "name": "accessorTangents"
    },
    {
      "bufferView": 3,
      "byteOffset": 15792,
      "componentType": 5126,
      "count": 146,
      "type": "VEC2",
      "name": "accessorUVs"
    },
    {
      "bufferView": 3,
      "byteOffset": 16960,
      "componentType": 5126,
      "count": 146,
      "type": "VEC2",
      "name": "accessorUV2s"
    },
    {
      "bufferView": 0,
      "byteOffset": 9536,
      "componentType": 5123,
      "count": 1152,
      "type": "SCALAR",
      "name": "accessorIndices"
    },
    {
      "bufferView": 1,
      "byteOffset": 27192,
      "componentType": 5126,
      "count": 292,
      "max": [
        0.0257193279,
        0.128098264,
        0.0257192925
      ],
      "min": [
        -0.0257193279,
        -0.12809816,
        -0.02571936
      ],
      "type": "VEC3",
      "name": "accessorPositions"
    },
    {
      "bufferView": 1,
      "byteOffset": 30696,
      "componentType": 5126,
      "count": 292,
      "type": "VEC3",
      "name": "accessorNormals"
    },
    {
      "bufferView": 2,
      "byteOffset": 18128,
      "componentType": 5126,
      "count": 292,
      "type": "VEC4",
      "name": "accessorTangents"
    },
    {
      "bufferView": 3,
      "byteOffset": 18128,
      "componentType": 5126,
      "count": 292,
      "type": "VEC2",
      "name": "accessorUVs"
    },
    {
      "bufferView": 3,
      "byteOffset": 20464,
      "componentType": 5126,
      "count": 292,
      "type": "VEC2",
      "name": "accessorUV2s"
    },
    {
      "bufferView": 0,
      "byteOffset": 11840,
      "componentType": 5123,
      "count": 3441,
      "type": "SCALAR",
      "name": "accessorIndices"
    },
    {
      "bufferView": 1,
      "byteOffset": 34200,
      "componentType": 5126,
      "count": 818,
      "max": [
        0.0186184738,
        1.37515116,
        1.25107646
      ],
      "min": [
        -0.0190657768,
        1.24084592,
        0.8188257
      ],
      "type": "VEC3",
      "name": "accessorPositions"
    },
    {
      "bufferView": 1,
      "byteOffset": 44016,
      "componentType": 5126,
      "count": 818,
      "type": "VEC3",
      "name": "accessorNormals"
    },
    {
      "bufferView": 2,
      "byteOffset": 22800,
      "componentType": 5126,
      "count": 818,
      "type": "VEC4",
      "name": "accessorTangents"
    },
    {
      "bufferView": 3,
      "byteOffset": 22800,
      "componentType": 5126,
      "count": 818,
      "type": "VEC2",
      "name": "accessorUVs"
    },
    {
      "bufferView": 3,
      "byteOffset": 29344,
      "componentType": 5126,
      "count": 818,
      "type": "VEC2",
      "name": "accessorUV2s"
    },
    {
      "bufferView": 0,
      "byteOffset": 18724,
      "componentType": 5123,
      "count": 489,
      "type": "SCALAR",
      "name": "accessorIndices"
    },
    {
      "bufferView": 1,
      "byteOffset": 53832,
      "componentType": 5126,
      "count": 161,
      "max": [
        0.0274548475,
        1.28504992,
        0.962350845
      ],
      "min": [
        -0.0279021636,
        1.12390983,
        0.8506787
      ],
      "type": "VEC3",
      "name": "accessorPositions"
    },
    {
      "bufferView": 1,
      "byteOffset": 55764,
      "componentType": 5126,
      "count": 161,
      "type": "VEC3",
      "name": "accessorNormals"
    },
    {
      "bufferView": 2,
      "byteOffset": 35888,
      "componentType": 5126,
      "count": 161,
      "type": "VEC4",
      "name": "accessorTangents"
    },
    {
      "bufferView": 3,
      "byteOffset": 35888,
      "componentType": 5126,
      "count": 161,
      "type": "VEC2",
      "name": "accessorUVs"
    },
    {
      "bufferView": 3,
      "byteOffset": 37176,
      "componentType": 5126,
      "count": 161,
      "type": "VEC2",
      "name": "accessorUV2s"
    },
    {
      "bufferView": 0,
      "byteOffset": 19704,
      "componentType": 5123,
      "count": 4902,
      "type": "SCALAR",
      "name": "accessorIndices"
    },
    {
      "bufferView": 1,
      "byteOffset": 57696,
      "componentType": 5126,
      "count": 1135,
      "max": [
        0.0312883221,
        0.0997389555,
        0.163916469
      ],
      "min": [
        -0.0202894378,
        -0.1425407,
        -0.202970564
      ],
      "type": "VEC3",
      "name": "accessorPositions"
    },
    {
      "bufferView": 1,
      "byteOffset": 71316,
      "componentType": 5126,
      "count": 1135,
      "type": "VEC3",
      "name": "accessorNormals"
    },
    {
      "bufferView": 2,
      "byteOffset": 38464,
      "componentType": 5126,
      "count": 1135,
      "type": "VEC4",
      "name": "accessorTangents"
    },
    {
      "bufferView": 3,
      "byteOffset": 38464,
      "componentType": 5126,
      "count": 1135,
      "type": "VEC2",
      "name": "accessorUVs"
    },
    {
      "bufferView": 3,
      "byteOffset": 47544,
      "componentType": 5126,
      "count": 1135,
      "type": "VEC2",
      "name": "accessorUV2s"
    }
  ],
  "bufferViews": [
    {
      "buffer": 0,
      "byteLength": 29508,
      "name": "bufferViewScalar"
    },
    {
      "buffer": 0,
      "byteOffset": 29508,
      "byteLength": 84936,
      "byteStride": 12,
      "name": "bufferViewFloatVec3"
    },
    {
      "buffer": 0,
      "byteOffset": 114444,
      "byteLength": 56624,
      "byteStride": 16,
      "name": "bufferViewFloatVec4"
    },
    {
      "buffer": 0,
      "byteOffset": 171068,
      "byteLength": 56624,
      "byteStride": 8,
      "name": "bufferViewFloatVec2"
    }
  ],
  "buffers": [
    {
      "uri": "m1911.bin",
      "byteLength": 227692
    }
  ],
  "materials": [
    {
      "pbrMetallicRoughness": {
        "baseColorFactor": [
          1,
          1,
          1,
          1
        ],
        "baseColorTexture": {
          "index": 1,
          "texCoord": 0
        },
        "metallicFactor": 0,
        "roughnessFactor": 0.9
      },
      "emissiveTexture": {
        "index": 0,
        "texCoord": 0
      },
      "emissiveFactor": [
        1,
        1,
        1
      ],
      "alphaMode": "OPAQUE",
      "name": "_mat"
    }
  ],
  "textures": [
    {
      "sampler": 0,
      "source": 0,
      "name": "_mat_emissive.jpg"
    },
    {
      "sampler": 1,
      "source": 1,
      "name": "_mat_baseColor.jpg"
    }
  ],
  "images": [
    {
      "name": "_mat_emissive.jpg",
      "uri": "data:image/png;base64,"
    },
    {
      "name": "_mat_baseColor.jpg",
      "uri": "data:image/png;base64,"
    }
  ],
  "samplers": [
    {
      "magFilter": 9729,
      "minFilter": 9987,
      "wrapS": 10497,
      "wrapT": 10497
    },
    {
      "magFilter": 9729,
      "minFilter": 9987,
      "wrapS": 10497,
      "wrapT": 10497
    }
  ]
}