<?xml version="1.0" encoding="utf-8"?>
<!-- Generator: Adobe Illustrator 21.1.0, SVG Export Plug-In . SVG Version: 6.00 Build 0)  -->
<svg version="1.1" id="Layer_1" xmlns="http://www.w3.org/2000/svg" xmlns:xlink="http://www.w3.org/1999/xlink" x="0px" y="0px"
	 viewBox="0 0 500 135" style="enable-background:new 0 0 500 135;" xml:space="preserve">
<style type="text/css">
	.st0{fill:#150000;}
</style>
<g>
	<g>
		<path class="st0" d="M199.6,23.4c2.7,6.4,8,6.4,13.9,6.4c24.3-0.3,48.7-0.3,73.1-0.4c5.1,0,5.1,0,5.1-5.3c0-6.2,0-12.4,0-18.6
			c0-1.4-0.5-3.5,1.7-3.3c2,0.2,5-1.7,6.1,1.8c2.4,7.1,6,13.5,8,20.7c1.3,4.8,2.5,5.5,7.6,5.7c15.7,0.8,31.5,0.9,47.2,0.8
			c15.9-0.1,31.9,0.1,47.9,0.3c1.9,0,3.6,0,3.4-2.7c-0.1-1.2,0.8-2.2,1.9-1.1c2.8,2.8,6.3,3.6,9.8,4.4c2.9,0.7,3.7,2.6,3.9,5
			c1.3,15.7,1.3,31.5,0,47.1c-0.2,2.1-1.3,2.8-3.5,3.2c-5.7,0.9-10.6-1.8-15.8-3.1c-28.1-6.6-56.5-12.2-84.9-17.9
			c-7.4-1.5-13.6,1-19,5.9c-2.8,2.5-2.2,7.6-0.3,12.5c1.4,3.6,4.2,6.3,6.5,9.2c5.3,6.6,7.1,14.6,8,22.7c0.3,2.6-1.6,4.5-4.3,5
			c-12.2,2.4-24.1,5.7-36.1,8.6c-2.4,0.5-4.6,0.3-6.8,0.3c-7.6,0-15,0-22.6,0c0-0.4,0-0.7,0-1.1c7.1-0.9,14.2-1.8,21.3-2.8
			c5-0.6,10-1.2,15-1.9c0.8-0.1,1.7,0.1,2.5-1c1.2-1.9,3.2-1.9,4.8-0.8c1.3,0.9,2.6,0.5,3.5,0c1.3-0.6,0.1-1.7-0.1-2.7
			c-0.7-3.4-1.3-6.7-2.2-10.1c-1.9-6.9-3.9-13.8-9.5-19c-4.7-4.3-10-3.1-15.3-2.9c-1.2,0-0.9,1.5-1,2.4c-0.2,1.7-0.7,3.2-2.6,3.5
			c-2,0.4-2.2-1.3-2.8-2.7c-0.8-2-2-3.1-4.5-2.8c-2.6,0.3-5.2,0.3-7.9,0.3c-1.5,0-2.2,0.5-2.2,2.1c-0.3,13.3-0.6,26.7-0.9,40
			c0,1.2,0.1,1.3-1.5,1.4c-9.1,0.7-18.2-0.1-27.3,0.2c-2.2,0.1-2.5-1.3-2.5-3.2c0.4-13.7,0.7-27.3,1.1-41c0.2-6.6,0.3-13.2,0.7-19.8
			c0.1-1.8-0.7-2-2.2-2c-17.5-0.6-35-1.3-52.5-2c-23-0.9-46-1.7-68.9-2.8c-2.6-0.1-5-0.8-4.7-4.3c0.2-2.6-1.5-2.5-3.3-2.5
			c-12.7,0-25.4,0-38.1,0c-6.9,0-13.9,0-20.7,0c-3.3,0-3.8-0.7-3.8-4.6c-0.1-2.7,0.9-3.6,3.7-3.6c19.3,0.1,38.6,0.1,57.9,0
			c1.7,0,4,0.8,4.5-2c0.7-3.9,0.1-5.4-3-6.6c-0.5-0.2-1-0.3-1-0.9c-0.1-0.8,0.3-1.1,1-1.2c2.1-0.3,2.5-1.9,2.5-3.8
			c0-4.8,0-9.7,0-14.5c0-1.3-0.3-3.1,1.9-2.7c1.8,0.4,4.7-1.5,5.1,2.2c0.4,3.9,1.4,7.7,2.4,11.4c0.5,1.7,1.1,2.6,3.2,2.5
			c28.8-0.6,57.5-1,86.3-1.5c4.9-0.1,6.9-3.4,5.6-8.7l-0.1,0.1c1.7,1.2,2.1,3,1.5,4.9c-0.4,1.4-0.6,2.9,1.5,1.7
			c1.5-0.8,3.7,1.3,4.1-0.5C202.2,26.5,200.5,24.9,199.6,23.4C199.4,23.6,199.5,23.5,199.6,23.4z M267.4,84.3c3.6-1.5,4.5-4.6,4.7-8
			c0.1-1.3-0.2-2.1-1.8-2.1c-5.8,0.1-11.8,0.2-17.6,0.2c-1.6,0-2.1,0.5-2.1,2.1c0,3-0.1,5.8-0.4,8.8c-0.2,2.1,0.4,2.8,2.6,2.6
			c8.6-0.6,17.2-1,25.8-1.4c1.8-0.1,2.9-0.9,3.4-2.7c1-3-0.4-7.4-3.1-8.9c-1.4-0.8-2.8-1.6-3.1,1.3
			C275.2,80.8,272.3,83.5,267.4,84.3z M301.4,30.1c1.1,0,2.4,0,3.5,0c1.4,0.1,1.9-0.5,1.3-1.9c-0.6-1.6-0.7-3.4-2.9-4.1
			c-1.8-0.6-2.4-3.1-1.6-4.2c1.3-2-0.1-3.3-0.5-4.8c-0.6-1.9-2.6-0.9-3.9-1c-1.4,0-1.2,1.2-1.2,2.1c0,3,0.1,5.8,0.1,8.8
			C296.3,30,296.3,30,301.4,30.1z"/>
		<path class="st0" d="M194.4,21.7c-0.9,0.1-1.5-0.2-1.4-1.1c0.1-0.8,0.9-0.6,1.5-0.6c2.5,0.1,4,1.4,5.1,3.5
			c-0.1,0.1-0.2,0.2-0.3,0.3c-1.3-0.9-1.9-2.6-3.7-3C194.4,20.5,194.4,21,194.4,21.7L194.4,21.7z"/>
	</g>
</g>
</svg>
