<?xml version="1.0" encoding="utf-8"?>
<!-- Generator: Adobe Illustrator 21.1.0, SVG Export Plug-In . SVG Version: 6.00 Build 0)  -->
<svg version="1.1" id="Layer_1" xmlns="http://www.w3.org/2000/svg" xmlns:xlink="http://www.w3.org/1999/xlink" x="0px" y="0px"
	 viewBox="0 0 512 145" style="enable-background:new 0 0 512 145;" xml:space="preserve">
<style type="text/css">
	.st0{fill:#010101;}
</style>
<path id="army_x2C__military_x2C__war_x2C__weapon__x2C_navy_x2C__aviation_x2C___ak47__x2C__gun__x2C_" class="st0" d="M455.6,52.6
	c-0.6-1-2-1.6-4.4-2c-1.6-0.3-4.6-0.8-8.5-1.5c-17-3-48.6-8.5-56.8-9.6c-1.8-0.2-3.6-0.4-5.4-0.3c-3.5,0-5.5,0.6-7.2,1.2
	c-1,0.3-1.9,0.6-3.1,0.8c-0.7,0.1-1.5,0.1-2.4,0.1c-3.7,0-8-0.7-8.4-0.8c-0.6-0.1-10.4-2.4-13.6-3.2c-1-0.2-1.9-0.4-2.7-0.4
	c-1.4,0-1.9,0.4-2.1,0.7l-0.1,0.2l-0.1,0.2v0.1c-2.6-0.4-6.5-1-6.5-1l-2.5-0.9c-0.1-4.4-5.5-8-7-8.3c0.1-0.2,0.2-0.4,0.2-0.6
	c0-1.6-4.1-7.7-9.3-7.7H212.1v-0.2l-1.2-0.9h-1.8v-0.2h5.3v-3.6c0-1-0.1-1.2-1-1.2c-1.4,0-2.5,2.3-2.5,2.3H208c-0.2-1-1-1.7-1.9-1.7
	s-1.7,0.7-1.8,1.7h-0.6c-2.6-2.2-6.9-0.6-6.9-0.6h-2.2l-0.5-0.6h-3.2c-1.8-2.6-3.4,0-3.4,0h-2.9v0.9h-0.8c-0.4-0.4-0.8-0.6-1.4-0.6
	c-2.9,0-3.4,1.5-3.4,3.6v1c-0.2-0.1-0.4-0.1-0.6-0.1c-0.3,0-0.6,0.1-0.8,0.2v-0.8c0-0.8-0.1-1.2-1.3-1.2h-1
	c-0.1-0.1-0.1-0.1-0.1-0.2c-0.5-0.5-1.2-0.7-2.6-0.7c-1.6,0-11.6,0.2-22.1,0.4c-10.3,0.1-21,0.4-22.7,0.4c-1.2,0-2.1,0.3-2.7,1h-1.3
	c-1,0-3.2,0-3.2,2.7v-0.5H84c-0.3,0-0.6,0.1-0.8,0.1H83c-0.2,0-0.3,0.1-0.5,0.1h-0.3C82.1,21,81.9,21,81.9,21h-0.3
	c-0.1,0.1-0.3,0.1-0.3,0.1c-0.1,0-0.2,0-0.2,0.1c-0.1,0-0.3,0.1-0.4,0.1s-0.1,0-0.2,0.1s-0.3,0.2-0.5,0.2c-0.2,0.1-0.4,0.2-0.5,0.3
	C79.4,22,79.4,22,79.4,22c-0.1-0.1-0.2,0-0.4,0l-0.1,0.1c0,0.1-0.2,0.2-0.3,0.3c-0.1,0.1-0.1,0.1-0.1,0.1c-0.1,0.1-0.2,0.1-0.3,0.3
	c0,0,0,0.1-0.1,0.1c-0.1,0.1-0.2,0.2-0.3,0.4v0.1c-2.2,2.4-3.3,5.8-5.7,8.3c-0.6,0.6-1.2,1.1-1.9,1.5h-0.4c-1.4,0.8-3,1.2-5,1.2
	h-0.2v0.1c-0.1,0-0.2,0.1-0.2,0.1H36.2v-2.2l-7.5-14.7c0.5-0.3,0.9-1.4,0.9-2.6c0-1.5-0.6-2.8-1.3-2.8h-6.9c-0.7,0-1.2,1.2-1.2,2.8
	c0,1.2,0.3,2.1,0.8,2.6h-0.2v0.2c0.1,0.1,1,5.6,0.1,9.7h-0.1c-0.3,0-0.7,0.1-0.7,0.1l-0.2,0.1v3.6c0,0.2-1.2,3-3,3v0.3h-2.7
	c-1.2,0-2.2,1.7-2.2,3.7s1,3.8,2.2,3.8h4.6c0,0,2.8,0.3,4.3,3.7c0.2,0,2.5,0.8,5.2,0.1H77c0.6,1,1.7,1.9,3.3,1.9H82
	c0,0,0.2-1.6,1.3-1.6V46h39.9c0.5,2.8,2.8,2.8,6.4,2.8c1.5,0,3.7,0.3,6.7,0.7c5.5,0.8,13.9,1.9,23.8,1.9c14,0,23,1,28.5,3.3
	c1.2,0.5,2.6,0.7,3.7,0.7c0.5,0,1.1-0.1,1.7-0.1c0.6,0,1.3-0.1,1.9-0.1c0.6,0,1-0.1,1.3-0.5c0.1-0.1,0.2-0.3,0.3-0.4
	c1.2-0.1,1.9-0.6,2.4-1.3l0.4,0.1h0.2c0.2,0,9.5,0.5,20.4,1l3.3,2.6c-0.1,1.7-0.8,8.9-5.3,18.6c-4.6,10.2-14.5,25.3-34.8,39.2
	l-0.1,0.1c-0.4,0.5-0.2,0.9,0.5,2.1c0.4,0.7,1,1.7,1.8,3c1.3,2.1,3.2,5.1,5.6,8.7c4,6.2,8.2,12.5,8.2,12.6l0.4,0.6l0.5-0.3
	c0.1-0.1,12.3-6.9,25.4-20.8c11.1-11.8,24.9-31.1,30.4-58c0.8-0.1,2.1-0.1,2.8,0.6h0.3c0,2.8,0.3,5.5,1.8,6.2c0,0,0.8,4.4,1.7,5.8
	h1.1v-2.3c0,0-0.9-1.2,0-2.1h0.5v-1.5c0.4-0.3,0.7-0.9,1.6,0.1h0.7c0.8,1.3,2.8,3.2,7.7,3.5c2,0.1,4,0.2,5.8,0.3
	c3.4,0.2,6.6,0.4,9.8,0.4h1.8c3.4-0.1,5.1-1.4,6.2-2.6c1,1,2.4,3.1,4.2,7.7c4.5,11.2,8.4,18.9,9.5,24.8c1.1,6,0.6,8,9.8,7.1
	c9.3-1,12.3-7.6,12.1-10.7c-0.2-3.1-6.5-16.2-8.5-21.8c-1.9-5.6-2.4-8.2-1-11c1.1-2.1,2.1-5.7,1.9-7.5h0.6l1.3-2.4
	c1.7,0.3,5.2,1.2,7.2,1.7c0.5,0.1,1,0.2,1.3,0.3c0.5,2.5,4.9,4.2,11.8,6.8c2.1,0.8,4.5,1.7,7,2.7c10.3,4.2,72.7,32.8,80.4,37.2
	c2,1.2,3.9,1.8,5.4,1.8c3.5,0,5.6-2.9,6-8.1c0.4-8.9,7.3-39.6,8-42.6C456,55.1,456.3,53.7,455.6,52.6L455.6,52.6z M209.3,28.3h-8.9
	H209.3z M199.4,32.7H199H199.4z M124,31.1h5.3c3.2-0.9,6.1-1.4,8.9-1.4c3,0,5.3,0.5,7.2,1c1.1,0.2,2,0.4,2.8,0.4h7.4
	c2.8-0.9,5.5-1.3,7.9-1.3c2.7,0,4.6,0.6,6,0.9c0.5,0.2,1,0.3,1.5,0.4c-0.7,0.1-0.8,0.6-1,1c-0.1,0.4-0.3,0.9-2.4,0.9h-9.5
	c-0.7,0-0.8-0.1-0.9-0.3c-0.2-0.6-0.6-1-1.9-1h-11.1c-1.3,0-1.7,0.4-1.9,1c-0.1,0.2-0.2,0.3-1,0.3h-9c-0.8,0-0.8-0.1-0.9-0.3
	c-0.2-0.6-0.6-1-1.9-1h-6.4v2.9h-1.9v-3.5L124,31.1L124,31.1z M84.1,31.6v-1h29.1l0.5,0.5l-1,3.5H84.2v-1.5h-0.1V31.6L84.1,31.6z
	 M22.2,28.7c0-1.6,1.3-2.9,2.9-2.9h5.6l2.9,5.8h-8.5C23.5,31.6,22.2,30.3,22.2,28.7L22.2,28.7z M30.2,44.2c0.8-1,1.6-2.1,1.6-2.1
	h32.5c0.1,0,0.2,0.1,0.2,0.1v0.1H67c-0.3,0.2-0.5,0.5-0.5,0.8c0,0.6,0.5,1,1.1,1h8.5v0.1L30.2,44.2L30.2,44.2z M83.4,44.1h0.5
	c0.6,0,1-0.4,1-1c0-0.4-0.3-0.8-0.7-1H119v2.1L83.4,44.1L83.4,44.1L83.4,44.1z M292.2,71.2c-3.7,0.1-7.5-0.1-11.4-0.4
	c-1.8-0.1-3.7-0.2-5.7-0.3c-4.9-0.3-6-2.3-6-2.6v-9.5c0.1-0.1,0.3-0.1,0.4-0.3c0.2-0.2,0.3-0.3,0.4-0.5s0.3-0.5,2.6-0.5
	c2.4,0,7.8,0.3,10.9,0.4c1.3,0.1,2.1,0.1,2.6,0.2c0.8,0.6,1.5,1.6,1.5,3.3c0,3.3,0.5,5.1-5.4,7.7c-0.1-0.1-0.3,0.9,1.6,0.7
	c1.9-0.3,4-2.1,4.8-3.2c0.8-1.2,2.6-5.2,2.6-5.7l2-0.6c0,0,1.9-0.8,2.6-2h0.3v4.9c0,0-0.8,3,0,5.8c0.1,0.6,0.3,0.9,0.6,1.1
	C295.7,70.4,294.4,71.1,292.2,71.2L292.2,71.2z"/>
</svg>
