<?xml version="1.0" encoding="utf-8"?>
<!-- Generator: Adobe Illustrator 21.1.0, SVG Export Plug-In . SVG Version: 6.00 Build 0)  -->
<svg version="1.1" id="Layer_1" xmlns="http://www.w3.org/2000/svg" xmlns:xlink="http://www.w3.org/1999/xlink" x="0px" y="0px"
	 viewBox="0 0 500 135" style="enable-background:new 0 0 500 135;" xml:space="preserve">
<style type="text/css">
	.st0{fill:#3F0500;}
</style>
<g>
	<g>
		<path class="st0" d="M197.7,32.6c1.4-3.1,3.1-6,7.3-3.1c0.6,0.5,1.8,0.2,2.7,0.2c7.9-0.2,15.7-0.6,23.5-0.8c1,0,2.3,0.5,3.2,1.1
			c3,2.1,6,3.5,9.9,3.2c9.6-0.7,19.1-1.3,28.7-1.7c1.5-0.1,3.1,1.2,4.7,1.8c1,0.3,1.9,0.6,3,0.7c9.6,0.3,19.3,0.5,28.8,0.8
			c0.4,0,1,0.2,1.2,0c3.9-4.7,8.9-1.4,13.4-1.7c3.5-0.2,6.8,0.2,10.4-1.4c6.7-3,12.6,1.7,13.2,9c8.3,3.3,16.4,6.4,24.4,9.9
			c5.8,2.5,11.4,3.8,17.6,1.4c8-3,16.2-1.2,24.4-0.4c3.9,0.3,7.6,0.8,11.5,1.1c14.1,1.1,28.1,2.2,42.2,3.5c5,0.4,10,1,15,1.8
			c7.8,1.3,11.6,7.2,10,15.6c-1.6,8.8-3.4,17.7-5.2,26.5c-0.4,2-1.4,4-2.4,5.9c-2.5,4.2-6.6,4-10.4,2.8c-7.8-2.4-15.5-5.1-23.2-7.9
			c-18.5-6.7-37-13.6-55.5-20c-3.1-1-6.8-0.5-10.1,0.2c-5.8,1.1-9.9-1.6-13.8-5.1c-2.7-2.3-5.1-5.1-8.2-7c-2.6-1.6-5.7-2.7-8.7-3.3
			c-2.4-0.6-3.6,1.4-4.3,3.7c-1.6,5.7-5,7.9-10.8,8.2c-5.2,0.3-10-0.5-13.2-4.8c-1.8-2.6-2.8-5.9-4.3-9.2
			c-7.3-0.4-15.1-0.7-22.9-1.4c-12.7-1-25.3-2.3-38-3.5c-3.9-0.3-7.7-0.7-11.6-0.9c-13.3-0.6-26.7-1-40-1.7
			c-16.6-0.8-33.3-1.7-50-2.5c-13.8-0.6-27.7-1.1-41.5-1.7c-15.6-0.6-31.3,0-46.8-2c-13.3-1.8-26.4-0.5-39.5-1.7
			c-3.9-0.3-7.7,0.3-11.6,0.2c-1.2,0-2.4-0.6-3.7-1c0.1-0.5,0.2-1,0.2-1.4c9.4,0,18.9,0,28.2,0c0.6-3.5,0.6-3.5-2.6-3.5
			c-10,0-20.1,0-30.1,0c-1,0-2,0.2-2.8-0.1c-1.9-0.8-3.8-1.9-5.6-2.9c0.9-1.5,1.8-3.1,3.3-5.6c-0.5-8.6-0.3-8.5,11.1-8.4
			c4.7,0.1,5.3,3.2,5.2,10.4c12.5,0,25.2,1,37.6-0.3c12.9-1.4,25.6,0.2,38.4-0.6c14.8-0.8,29.5-1.4,44.3-1.8
			c15.7-0.5,31.6-0.6,47.3-0.9C193.9,32.3,195.6,32.4,197.7,32.6z M337.9,74.8c0.7-1.2,2.1-2.8,2.7-4.7c0.5-1.3,0-3-0.2-4.5
			c0-0.2-0.6-0.6-0.9-0.7c-1.9-0.4-4.3-1.5-5.7-0.9c-2.2,1-4.3,3.1-5.5,5.2c-0.4,0.6,2.1,3.5,3.8,4.6
			C333.4,74.7,335.4,74.4,337.9,74.8z M344.8,64.5c-0.7,3.6-1.4,6.4-1.9,9.3c2.7-1,5.1-2.6,4.7-6C347.4,66.6,345.7,65.5,344.8,64.5z
			"/>
	</g>
</g>
</svg>
