<?xml version="1.0" encoding="utf-8"?>
<!-- Generator: Adobe Illustrator 21.1.0, SVG Export Plug-In . SVG Version: 6.00 Build 0)  -->
<svg version="1.1" id="Layer_1" xmlns="http://www.w3.org/2000/svg" xmlns:xlink="http://www.w3.org/1999/xlink" x="0px" y="0px"
	 viewBox="0 0 500 135" style="enable-background:new 0 0 500 135;" xml:space="preserve">
<style type="text/css">
	.st0{fill:#150000;}
</style>
<g>
	<g>
		<path class="st0" d="M328.2,45.8c0.4,1.7,0.6,3.3,1.2,4.9c0.3,0.9,1.1,2,1.6,2.1c4.6,0.4,7.3,3.7,9.7,6.8
			c6.2,8.2,14.8,7.5,22.5,5.9c0.6-0.1,1.4-2,1.2-3c-1-5.4-2.2-10.8-3.3-16.2c-0.1-0.6,0.1-1.3,0.2-2.2c1.2-0.1,2.2-0.2,3.3-0.2
			c22.6,0,45.1,0,67.7,0c2.8,0,5.6,0,8.4,0.1c0.9,0,2,0.4,2.2,1c1.2,3,3.6,2.6,6.1,2.6c5.9,0.2,11.6,0.5,17.5,0.6
			c1.6,0,3.3-0.7,4.9-0.6c6.5,0.5,9.6,5.1,8.5,12.1c-0.9,5.9-1.6,11.7-2.2,17.7c-0.7,6.4-1.4,12.8-2.1,19.2c-0.4,3.4-3,4.7-7,4.6
			c-6.7-0.3-13.3-0.2-20-0.2c-0.7,0-1.9,0.4-2.2,1.1c-1.7,3.3-4.6,3.2-7.6,3c-5.1-0.2-10.2-0.4-15.3-0.3c-1.8,0-3.6,0.7-5.4,1.4
			c-4.3,1.7-8.4,1.8-12.4-0.6c-1-0.6-2.3-2.4-2.1-2.8c1-1.6,0.4-4.7,3.8-4.2c1.6,0.2,3.3,0,4.5,0c0.4-3.1,1.1-6,1.3-8.8
			c0.2-2.1-0.2-4.4-3-4.5c-8.3-0.3-16.5-0.5-24.8-0.6c-1,0-1.9,0.3-3.2,0.6c0.4,3,0.3,6,1.3,8.5c1.6,3.9,0.6,6.9-2,9.6
			c-1,1-2.4,2-3.8,2.1c-10.2,1.2-20.3,2.2-30.6,3.1c-2.2,0.2-4.8-0.4-6.9-1.3c-1.2-0.4-2.4-1.9-2.8-3.2c-0.2-0.5,1.7-1.8,2.7-2.7
			c0.3-0.3,0.9-0.3,2.3-0.9c-2.9-6.6-5.6-13-8.6-19.3c-0.5-1.1-2.2-1.8-3.4-2.4c-1.9-1-3.8-1.7-6.1-2.6c-1.5,5.4-5.6,8-11.5,7.5
			c-1.8-0.2-3.7-0.9-5.1-1.9c-1.8-1.5-3.2-3.4-6.1-3.1c-0.3,0-1.4-2.3-1.5-3.6c-0.1-4.5-0.1-4.5-4.4-3.7c-1.3,0.2-2.4,0.9-3.7,0.6
			c-4.7-0.6-5.3,2-5,5.7c-1.1-2.2-2.1-4.6-3.2-6.8c-0.4,0.1-0.9,0.3-1.3,0.4c0,5.4,0,10.9,0,16.7c-5,0-9.7,0-14.3,0
			c-4.7,0-9.4,0-14.5,0c0-5.3,0-10.4,0-15.1c-4.7-1.4-8.9-2.2-13-4c-7-3.1-14.4-3.5-21.8-3.5c-29.1,0.2-58.1,0.2-87.2,0.2
			c-1.9,0-4-1-5.9-1.9c-3.4-1.9-6.4-4.9-10-6c-3.6-1.1-7.8-0.4-11.7-0.1c-5.4,0.5-10.3-0.9-15.2-2.6c-0.1-0.4-0.2-0.7-0.2-1.2
			c1.5-0.5,3.1-1,4.5-1.5c0.6-0.3,1.3-0.9,1.9-1.3c-0.7-0.5-1.4-1.5-2.1-1.4c-12.7,0.2-25.6-0.3-38.1,1.2c-4.7,0.5-9.3,2.6-14.3,2.1
			c0.1-0.3,0.2-0.7,0.4-1.1c-1.3-0.6-2.4-1.8-3.7-1.8c-7-0.5-14.2-0.4-21.3-0.4c-2.6,0-4-1-4.2-3.9c1.7,0.2,3.1,0.4,4.5,0.6
			c0.1-0.3,0.2-0.6,0.3-1c-1.3-0.4-2.6-1-3.8-1.4c-0.1-0.3-0.2-0.5-0.3-0.9c1.3-0.3,2.7-1,3.9-1.1c6.4-0.1,12.8-0.1,19.2,0
			c2.6,0.1,3.6-0.5,3.7-3.3c0.1-2.4,1.2-4.8,1.8-7.2c5.9-0.9,8.7,0.9,9.5,6.6c0.3,2.9,2.1,3.6,4.3,3.9c3.5,0.5,7,0.9,10.5,0.9
			c5.7,0.1,11.5,0.2,17.2,0c4.7-0.2,9.3,0.4,14.1-1.4c3.6-1.4,8.4,0.6,12.7,0.4c2.9-0.1,5.6-1.4,8.5-2.1c1.2-0.3,2.4-0.9,3.6-0.9
			c40.8-0.3,81.6-0.6,122.3-0.9c1.1,0,2.2,0.6,3.3,1.1c1.7,0.9,3.2,1.8,4.2-0.9c0.2-0.5,1.6-1,2.4-1c12.4,0,24.7-0.1,37.1,0.1
			c1.1,0,2.3,0.9,3.3,1.6c1.6,1.4,7.7,0.6,9.1-1.1c1.4-1.8,3-3.4,4.3-4.8c5.2,2.1,5.9,6.1,5.9,10.5C318.2,44.4,323.2,45,328.2,45.8z
			 M316,69.9c1.6,4,4,6.9,0.4,10c1.2-7-3.4-10.8-10.5-9.3c0.1,2,0.5,4,0.4,6c-0.2,2.9,1.5,4.3,3.7,5c3.7,1.3,8.7-0.3,10.6-3.8
			c1.1-1.9,1.1-4.5,0.9-6.7C321.6,70.7,318.6,70.5,316,69.9z"/>
	</g>
</g>
</svg>
