<?xml version="1.0" encoding="utf-8"?>
<!-- Generator: Adobe Illustrator 22.1.0, SVG Export Plug-In . SVG Version: 6.00 Build 0)  -->
<svg version="1.1" id="Layer_1" xmlns="http://www.w3.org/2000/svg" xmlns:xlink="http://www.w3.org/1999/xlink" x="0px" y="0px"
	 viewBox="0 0 317 88" style="enable-background:new 0 0 317 88;" xml:space="preserve">
<style type="text/css">
	.st0{fill:#231F20;}
</style>
<g>
	<path class="st0" d="M150,15v12c0,2,2,2,2,0V15C152,14,150,14,150,15z M2,16h29c1,0,3,1,3,2l0,0l42,1l3,4H34l0,0c0,1-2,3-3,3H2
		c-1,0-2-2-2-3v-5C0,17,1,16,2,16z M86,4V0h3l12,19v6H80l-3-6h9V4z M98,19L89,4h-1v15H98z M102,29V13c0-1,2,0,2,0v16
		C104,30,102,30,102,29z M104,31V12c0-2,5-2,5,0v19C109,32,104,33,104,31z M109,31V12c0-2,5-2,5,0v19C114,32,109,33,109,31z M114,31
		V12c0-2,5-2,5,0v19C119,32,114,33,114,31z M119,31V12c0-2,5-2,5,0v19C124,32,119,33,119,31z M124,31V12c0-2,5-2,5,0v19
		C129,32,124,33,124,31z M129,31V12c0-2,5-2,5,0v19C134,32,129,33,129,31z M134,31V12c0-2,5-2,5,0v19C139,32,134,33,134,31z M139,31
		V12c0-2,5-2,5,0v19C144,32,139,33,139,31z M144,31V12c0-2,5-2,5,0v19C149,32,144,33,144,31z M164,28h42c1,0,1,2,0,2h-42
		C163,30,163,28,164,28z M164,22h40l2,6h-42V22z M239,31l-5,12l-16,8h-30l-22-9l-2-9v-3L239,31z M167,6l-1,6h49c4,0,4-6,0-6h-1H167z
		 M218,44l-2-1v-2l-2-3c-1,2-2,4-3,6l-1,4l-1-5l1-5h8V44z M187,52l-16,36l-21-9l16-36L187,52z M218,50V38h-26l-5,11l1,1H218z
		 M220,52l12,29l15-7l-12-29L220,52z M316,21l1,15h-57l0,0l-19-7h-33l-4-8h-40v-4l-2-3l2-12h67l7,12h5l4,8L316,21z M317,38v3l-1,15
		l-51-18H317z M161,12h-7c-1,0-1,1-1,2v15c0,1,0,1,1,1h8c0,0,1,0,1-1v-8l0,0v-4l-2-3V12z"/>
</g>
</svg>
