<?xml version="1.0" encoding="utf-8"?>
<!-- Generator: Adobe Illustrator 22.1.0, SVG Export Plug-In . SVG Version: 6.00 Build 0)  -->
<svg version="1.1" id="Layer_1" xmlns="http://www.w3.org/2000/svg" xmlns:xlink="http://www.w3.org/1999/xlink" x="0px" y="0px"
	 viewBox="0 0 126.6 22.9" style="enable-background:new 0 0 126.6 22.9;" xml:space="preserve">
<style type="text/css">
	.st0{fill:#231F20;}
</style>
<path class="st0" d="M107,16.3c-6.5-2.2-13-2.5-13-2.5c-1.9-3-6.6-3.6-6.6-3.6c-2.5-1-2.7,0-2.7,0C83.5,16,77,12.5,77,12.5l-1.3,1.2
	l-8.3-3.1l-0.9-1.8L57.2,8L33.4,7.4c-1.6,0-3.2,0.4-3.2,0.4c-2.8-2.1-2.5-1-2.5-1c-18-0.9-16.3,0.5-16.3,0.5c-1-2.1-1.1,0.3-1.1,0.3
	L9.2,7.7C8.1,5.2,7,6.1,7,6.1L0,6V1.5l1.2-0.2c1.1-3.2,1.6,1.1,1.6,1.1L5,1.8l22.1-0.4c2,1.1,1.8-0.2,1.8-0.2l17.9-0.1
	c0.9-2.7,3.6,0.4,3.6,0.4l21.1,0.4c0.1-3.2,4-0.7,4-0.7L82.4,1l0.8,2.3c1.2-0.4,2.6,0.4,2.6,0.4c5.2,2.3,10,3,10,3l29.9,1.1l0.9,1.5
	c-3,5.9-1.3,13.7-1.3,13.7L107,16.3z M81.3,11.6c1.5-0.3,1.8-2.4,1.8-2.4c-3.3,0.4-5.9,0.1-5.9,0.1C80,12,81.3,11.6,81.3,11.6z"/>
<path class="st0" d="M80.7,9.3c0,0,1.3,1.2-0.5,1.7c0,0,0.2,0.2,0.6,0.1c0,0,1.2-0.2,0.5-1.8H80.7z"/>
</svg>
