<?xml version="1.0" encoding="utf-8"?>
<!-- Generator: Adobe Illustrator 21.1.0, SVG Export Plug-In . SVG Version: 6.00 Build 0)  -->
<svg version="1.1" id="Layer_1" xmlns="http://www.w3.org/2000/svg" xmlns:xlink="http://www.w3.org/1999/xlink" x="0px" y="0px"
	 viewBox="0 0 500 135" style="enable-background:new 0 0 500 135;" xml:space="preserve">
<style type="text/css">
	.st0{fill:#06003F;}
	.st1{fill:#FFFFFF;}
</style>
<g>
	<g>
		<path class="st0" d="M82.6,12.9c0.5,2.7,1,5.4,1.5,8.1c0.1,0.3,0.5,0.7,0.8,0.8c3.9,1.6,8,2.2,12.1,2.3c7.5,0.2,15,0.3,22.5,0.3
			c18.2,0.1,36.3,0.1,54.4,0.4c14.1,0.2,28.2,0.8,42.2,1c12,0.2,24.2,0.1,36.2,0.2c1.3,0,2.2-0.4,2.8-1.6c0.6-1.3,1.7-1.7,3.1-1.8
			c1.5-0.1,3.2-0.1,4.4-0.8c1.2-0.6,2.2-1.9,3.2-3.2c1.5-2,4.2-2.1,5.1,0.2c1.3,3.4,4,4.2,7.1,4.4c2.2,0.1,2.7,0.4,3.2,2.3
			c0.5,0,0.9,0,1.4,0.1c0.7-2.6,0.7-2.6,3.2-2.5c5.8,0.3,11.6,0.6,17.4,0.9c0.2,0,0.5,0,0.6,0.1c2,1.5,4.6,1.2,6.8,1.8
			c3.5,0.9,6.2,4.3,6.4,8.3c0,0.5,0.1,1.1,0.1,1.7c0.3,0,0.5,0.1,0.8,0.1c2.7-0.2,4.5,0.9,6.3,3c5.5,6,12,10.6,19.8,13.4
			c7.4,2.7,14.7,2.6,22.2,0.5c5.3-1.4,10.8-1.5,16.2-0.9c3.2,0.3,6.3,0.3,9.4,0.6c3.9,0.3,7.7,0.8,11.4,1.2
			c7.5,0.9,14.9,1.8,22.4,2.7c10,1.1,19.9,2,29.9,3.1c2,0.2,4.1,0.1,6,0.3c0.8,0.1,1.5,0.7,2.2,1.1c2.8,1.7,5,4,4.9,7.6
			c-0.2,5.3-0.4,10.5-0.7,15.8c-0.3,5.4-0.5,10.8-0.8,16.1c-0.3,4.9-0.5,9.8-0.9,14.6c-0.1,1.1-0.4,2.3-0.9,3.4
			c-1.3,2.8-3.7,3.8-6.7,3.2c-6.1-1.3-12.4-2.7-18.5-4c-11.7-2.7-23.3-6.1-34.6-10.3c-7.6-2.9-14.9-6.3-22.5-9.4
			c-4.2-1.7-8.5-3.2-12.6-5c-3.3-1.4-6.4-1.4-9.8-0.5c-1.2,0.4-2.6,0.5-3.8,0.9c-3.5,1.1-5.8-0.4-7.8-3.1c-1-1.4-2.1-2.8-3.3-4.2
			c-0.4-0.6-0.8-1.3-1.3-1.6c-0.2-0.5-0.3-1-0.6-1.4c-3.1-3.8-6.5-7.4-10.8-9.7c-4-2.1-8-4.5-12.1-6.1c-4-1.5-8.2-2.3-12.6-3.6
			c0,2.2-0.1,4,0,5.8c0.2,2.3,0,4.7-1.2,6.7c-1.5,2.7-4.2,3.5-6.8,3.7c-4.5,0.3-9.1,0.3-13.6,0.2c-3.7-0.1-7.5-0.4-11.1-0.6
			c-5.6-0.2-9.9-3.8-10-9.4c0-1.3-0.2-2.8-0.4-4.1c-0.2-1.5-1.2-2.2-2.7-2.5c-2.6-0.4-5-1-7.6-1.2c-2.5-0.2-4.9-0.2-7.4-0.2
			c-0.2,0-0.6,0.3-0.7,0.5c-0.6,1.6-1.9,2.5-3.5,2.6c-3.4,0.2-6.7,0.4-10,0.3c-2.5-0.1-5-0.5-7.5-0.8c-0.4,0-0.8-0.1-1.2-0.2
			c-2-0.5-2.6-1.8-1.3-3.5c-1.3-0.3-1.3-0.3-1.4,0.9c0,0.1,0,0.2,0,0.3c-0.1,1.9-0.1,1.9-2.1,2.2c-1.2,4.1-0.7,8.3-1,12.5
			c-0.2,3.3-0.4,6.5-0.6,9.7c-0.2,3.1-0.3,6.2-0.5,9.3c-0.2,3.4-0.6,6.6-0.9,10s-0.5,6.6-0.8,10c-0.1,0.8-0.2,1.6-0.3,2.5
			c-0.2,1-0.7,1.6-1.7,1.6c-1.6,0-3.4,0.2-4.9-0.2c-2.9-0.8-5.6,0-8.5-0.3c-2-0.2-4-0.1-6-0.3c-0.5,0-1.1-0.6-1.3-1.1
			c-0.3-1-0.5-2.1-0.5-3.3c-0.1-7-0.1-14.2-0.1-21.2c0-2.7,0.2-5.3,0.3-8c0-2.1-0.2-4.3,0-6.3c0.3-4.4,0.9-8.8,1.3-13.2
			c0.2-1.7,0.3-3.6,0.5-5.3c-0.3-0.1-0.4-0.2-0.6-0.2c-0.9-0.2-2.5-0.1-2.8-0.6c-0.6-1.1-0.6-2.6-0.8-4c-0.3-1.8-0.3-3.8-0.8-5.5
			c-0.1-0.5-1.3-0.9-2-0.9c-2.7-0.3-5.2-0.5-7.9-0.5c-4.7,0-9.1-0.8-13.5-2.5c-5.1-1.9-10.6-2.1-16.1-1.8c-2.9,0.1-5.7-0.2-8.5-0.4
			c-1-0.1-2-0.3-3.1-0.3c-5-0.1-10-0.1-15-0.1c-1.6,0-3.3,0.4-4.9,0.3c-7.4-0.3-14.6-0.8-21.9-1c-2.9-0.1-5.7,0.2-8.5,0.2
			c-6.9-0.2-13.9-0.7-20.9-0.9c-5.1-0.1-10.2,0-15.2-0.1c-3.8-0.1-7.6-0.4-11.3-0.6c-2-0.1-3.7-1.1-4.8-2.9
			c-2.6-4.2-4.5-8.6-4.9-13.5c-0.1-1.8,0.7-2.9,2.7-3c2.8-0.1,5.6,0,8.4,0c5.7,0,11.4,0.2,17.2-0.1c2.8-0.2,5.4-1.4,8.1-2.2
			c0.3-0.1,0.5-0.7,0.6-1.1c0.6-2.1,1.2-4.2,1.8-6.3C74.5,12.9,78.5,12.9,82.6,12.9z M297.9,62.6c-0.2,1.1-0.3,2-0.4,2.9
			c-0.3,4.1-2.6,6.7-6,8.6c-0.4,0.2-1.1,0-1.6,0.1c0.3-0.5,0.4-1.2,0.8-1.5c3.2-2,4.3-5.4,3.3-9.8c-0.6,0-1.2,0-1.9,0
			c-1.6-0.1-3.1,0-4.3,1.2c-0.7,0.7-1.9,1.2-3.1,1.4c-1,0.2-1.3,0.5-1.2,1.4c0.1,1.1,0.1,2.2,0.2,3.4c0.1,1-0.8,2.3-1.7,2.2
			c-1.4-0.1-1.1-1.1-1.1-2c0-1.3-0.1-2.7-0.3-4c0-0.3-0.5-0.7-0.8-0.7c-1.4-0.1-2.8,0-4.2,0c-2.1,0.1-4-0.7-5.8-1.5
			c-0.4-0.2-0.9-0.5-1-0.8c-0.3-1.1-1-0.9-1.4-0.9c0.3,2.3,0.6,4.6,0.7,6.8c0.2,4.7,3.1,8.1,7.7,8.3c8.1,0.4,16.2,0.4,24.3,0.8
			c3.7,0.2,6.5-2.3,6.3-6.6c-0.1-2.7,0-5.3,0-8.3C303.4,63.2,300.8,62.9,297.9,62.6z M70.7,35c0,0.1,0,0.1,0,0.2c1.7,0,3.6,0,5.3,0
			c1.2,0,2.6-0.1,3.8-0.3c1.3-0.2,2.1-1,2.1-2.3c0-1.3-0.8-2.1-2-2.6c-0.9-0.3-2-0.4-3-0.4c-4.8-0.2-9.6-0.4-14.3-0.4
			c-1,0-2.5,0.5-3,1.3c-0.5,0.7-0.3,2.3,0.3,3.1c0.5,0.8,1.8,1.3,2.9,1.4C65.4,35.2,68,35,70.7,35z M101.8,35.6v-0.1
			c1.9,0,4,0,5.9,0c0.8,0,1.6-0.1,2.5-0.3c1.2-0.2,2.2-1.1,2-2.2c-0.1-0.9-1-1.8-1.7-2.5c-0.5-0.4-1.4-0.4-2.1-0.5
			c-5.1-0.2-10.3-0.4-15.4-0.4c-0.9,0-2.2,0.5-2.8,1.1c-0.5,0.7-0.4,2.1,0.1,3c0.4,0.7,1.5,1.3,2.5,1.4
			C95.7,35.4,98.8,35.4,101.8,35.6z M130.7,36.3c2.8-0.1,5.4-0.2,8-0.4c1.5-0.1,2.7-1,2.6-2.5c0-1.5-1.2-2.3-2.7-2.6
			c-2.2-0.2-4.5-0.4-6.6-0.5c-3.4-0.1-6.7-0.2-10.1-0.2c-0.9,0-2.2,0.4-2.8,1.1c-0.5,0.7-0.4,2.1,0,3c0.4,0.7,1.6,1.4,2.6,1.5
			C124.8,36,127.9,36,130.7,36.3z M159.2,36.9c2.8-0.1,5.4-0.2,8.1-0.4c1.5-0.1,2.6-1,2.6-2.5s-1.1-2.3-2.5-2.5
			c-2.2-0.3-4.6-0.5-6.8-0.5c-3.4-0.1-6.7-0.2-10.1-0.2c-0.9,0-2.2,0.5-2.8,1.1c-0.5,0.7-0.4,2.1,0.1,3c0.4,0.7,1.5,1.3,2.5,1.4
			C153.2,36.7,156.2,36.7,159.2,36.9z M45.5,35.3c5,0.8,7.8-1.5,6.5-5.5C46.8,29.3,44.9,30.9,45.5,35.3z M242.4,62.6
			c-2.3-2.2-5-1.4-7.6-1.4C237.1,63.1,239.5,63.9,242.4,62.6z"/>
		<path class="st1" d="M227.9,67.5c2.6-0.1,5.2-0.9,7.6,1.4"/>
	</g>
</g>
</svg>
