<?xml version="1.0" encoding="utf-8"?>
<!-- Generator: Adobe Illustrator 21.1.0, SVG Export Plug-In . SVG Version: 6.00 Build 0)  -->
<svg version="1.1" id="Layer_1" xmlns="http://www.w3.org/2000/svg" xmlns:xlink="http://www.w3.org/1999/xlink" x="0px" y="0px"
	 viewBox="0 0 500 150" style="enable-background:new 0 0 500 135;" xml:space="preserve">
<style type="text/css">
	.st0{fill:#150400;}
</style>
<g>
	<g>
		<path class="st0" d="M168.7,62c1.5,1.2,2.5,1.9,3.4,2.7c1.2,1.1,1.3,2.1,0.7,3.8c-2.2,6.3-3,12.7-2.3,19.6
			c0.8,7.8,0.2,15.9,0.1,23.8c0,0.8-1.3,2-2,2c-5,0-10.1-0.3-15-0.6c-1.7-0.1-2-0.9-1.3-2.3c2.3-5.3,2.1-10.8,2.3-16.4
			c0.2-6.4,1.3-12.7,1.9-19.1c0.2-2.9,0.2-5.7,0.2-8.6c-0.1-2.5-0.3-4.8,3.2-4.7c0.3,0,0.9-0.2,1.1-0.7c1.3-2.2-1.1-6-3.7-6
			c-4.2,0-8.5,0.2-12.7-0.1c-1.5-0.2-3-1.9-4.1-3.1c-0.2-0.2,0.6-1.5,0.9-2.5c-9.7-0.4-19.6-1.7-28.8-0.2c-1.9,0-3.5,0-4.9,0
			c-0.8,0-1.6,0.1-2.3,0.1c-7.6-0.2-15.2-0.3-22.8-0.7c-0.6,0-1.2,0-1.8,0.1c-3.1,0.6-3.9-0.1-4-3.1c0-0.9-0.1-1.9,0-2.9
			c0.3-3.6,1.1-3.6,4.6-3.4c4.7,0.3,9.5-0.1,14.2-0.1c1.9,0,3.7,0.4,5.5,0.6c3.2,0.1,6.6,0.1,9.9,0c0.6,0,1.2-0.3,1.7-0.2
			c7.4,2.6,14.8,1.1,22.1,0.8c0.2,0,0.3,0,0.6,0c9.2-0.2,18.4-0.6,27.6-0.8c2.6-0.1,4-1.2,5.1-3.6c0.3-0.8,1.5-1.3,2.3-1.9
			c1.3-1.1,2.7-2.3,4-3.5c0.4-0.3,1.1-0.8,1.7-1c2.5-0.8,4.9-1.3,7.4-2.1c1.8-0.6,3.5-1.2,3.8,2.2c2.8-2.1,5.4-3.9,7.7-5.9
			c1.8-1.5,3.4-3.2,4.9-4.9c3-3,2.1-6.8,2-10.4c-0.1-2.8,1.3-4,3.6-4.8c0.3-0.2,1.1-0.2,1.3,0c3.6,4,8.4,1.5,12.4,2.5
			c2.2,0.4,4.6,0,6.9,0c1.9,0,3.7,0.2,5.1-2c1.3-2.1,3.6-1.6,5.7,0.4c0.8,0.8,1.9,1.6,3,1.6c8.5,0.1,17.1,0.1,25.5,0.1
			c11.2-0.1,22.1-0.2,33.3-0.3c1.9,0,3.7-0.4,5.8-0.8c0,4.2,0.1,8.7-0.1,13.1c0,0.6-1.3,1.6-2.1,1.6c-11.1-0.1-22-0.2-33-0.6
			c-3.6-0.1-6.5,1-9.5,2.6c-4.6,2.3-8.4,5.3-11.2,9.6c-0.3,0.6-0.6,1.2-0.6,1.3c1.9,1.2,3.5,2.2,5.1,3.1c0.8,0.3,1.7,0.4,2.5,0.4
			c17.2,0.3,34.4,0.7,51.6,0.9c8.9,0.2,17.8,0.2,26.7,0.3c26.5,0.4,53.1,0.8,79.6,1.2c6.3,0.1,11.3,2.8,15,7.7
			c0.9,1.2,1.1,3,1.3,4.6c0.8,5.9-1.8,11.2-2.9,16.8c-2,10.1-4.4,20.1-6.3,30.2c-1.2,6.3-1.8,12.6-2.6,18.9
			c-0.3,2.7-1.7,3.6-4.5,3.1c-0.8-0.1-1.6,0-2.3,0c-7.8-0.2-15.6-0.3-23.5-0.7c-3.2-0.1-4.8-2.9-3.5-5.9c2.6-5.7,2.5-5.7-2-9.9
			c-5.1-4.9-11.2-8.7-17.2-12.2c-0.7-0.3-1.2-0.8-1.9-1.3c-1.2,0.8-2.5,1.6-3.6,2.3c-5.1-2.9-9.1-7.4-15.2-7.3
			c-2.3,18.8-6.9,37.1-14.3,55c-6.7-2.2-12.9-4.1-19-6.3c-3.4-1.1-6.7-2.5-9.9-3.6c-3-1.1-3.6-2.7-1.9-5.5c1.3-2.3,2.9-4.7,3.6-7.3
			c2.6-10.1,4.9-20.2,7.4-30.2c0.4-2,1-4,1.3-6c0.1-0.8-0.7-1.7-1.2-2.3c-0.8-0.9-2.2-1.7-2.5-2.7c-0.3-2.6-2.1-3.8-4-4.2
			c-7.3-1.9-14.5-3.8-21.9-5.3c-2.7-0.6-5.8-0.8-8.4,0.1c-5.3,1.8-6.6,8-3,12.2c4.6,5.1,7.7,11.2,9.6,17.7
			c1.8,5.9,2.2,12.1,1.9,18.2c-0.1,1.3-0.3,2.8-2.5,2.8c-7.8-0.1-15.6-0.2-23.5,0.1c-10.5,0.4-17.7-4.4-23.5-12.6
			c-5.8-8.2-12.1-16.1-18.2-24.1c-2.9-3.7-5.7-7.5-8.9-10.8c-4.8-4.9-10.7-7.5-17.7-7.6c-4.2,0-8.5,0-12.7-0.1
			C172.6,62.8,170.9,62.3,168.7,62z M233.3,76.5c0.4-1.5,0.8-2.5,1.1-3.5c1-2.9,0.3-7.4-1.6-7.5c-4.6-0.6-9.1-0.3-13.6-0.2
			c-0.7,0-1.3,1-1.9,1.7c-2.9,3.7-3,6.9-0.1,10.7c6.5,8.7,13.1,17.5,19.7,26.1c1.6,2,3.4,3.9,5.3,5.6c4.1,3.6,9.3,2.8,14.1,2.5
			c2.9-0.2,4.7-3.4,3.6-6.3c-3.4-8-6.8-16.1-10.6-24.1c-0.6-1.1-2.5-1.7-3.9-2.3c-0.8-0.3-1.9-0.2-2.3-0.8c-1.2-1.9-3-1.9-4.8-1.9
			C236.6,76.5,235.2,76.5,233.3,76.5z M209.8,39.9c0-0.1,0-0.2,0-0.3c7.3,0.2,14.4,0.7,21.6,0.9c1.9,0.1,3.9,0.7,5.1-1.6
			c2.5-4.5,5-8.8,7.4-13.3c0.9-1.8,1.3-3.8,1.9-5.7c-2.1-0.4-4.1-1.1-6.3-1.5c-1.8-0.3-2.8,0.3-2.8,2.3c-0.1,2-1.3,2.9-3.1,3
			c-1.9,0.1-3.6-0.7-3.8-2.7c-0.2-2.3-1.3-2.6-3.2-2.6c-4.4,0.1-8.7,0-13.1,0.1c-0.9,0-2,0.1-2.7,0.7c-6.8,5-13.5,10.1-20.1,15.2
			c-0.9,0.8-1.7,3-1.3,3.9c0.3,1,2.5,1.8,3.7,1.8C198.7,40,204.2,39.9,209.8,39.9z"/>
	</g>
</g>
</svg>
